<?xml version="1.0" encoding="UTF-8"?>
<!DOCTYPE svg PUBLIC "-//W3C//DTD SVG 1.1//EN" "http://www.w3.org/Graphics/SVG/1.1/DTD/svg11.dtd">
<svg xmlns="http://www.w3.org/2000/svg" version="1.1" width="1024px" height="1024px" style="shape-rendering:geometricPrecision; text-rendering:geometricPrecision; image-rendering:optimizeQuality; fill-rule:evenodd; clip-rule:evenodd" xmlns:xlink="http://www.w3.org/1999/xlink">
<g><path style="opacity:0.998" fill="#0f0e0c" d="M 404.5,73.5 C 414.019,73.0606 421.519,76.7273 427,84.5C 433.454,96.9554 442.121,107.622 453,116.5C 452.944,127.332 456.277,136.999 463,145.5C 462.644,151.812 462.644,158.145 463,164.5C 465.134,169.759 466.967,175.092 468.5,180.5C 479.253,178.733 489.753,179.733 500,183.5C 501.811,182.922 503.645,182.422 505.5,182C 518.7,170.53 534.033,166.197 551.5,169C 557.076,170.615 562.743,171.782 568.5,172.5C 584.183,171.923 599.85,171.09 615.5,170C 619.896,169.254 624.23,168.254 628.5,167C 641.739,160.696 655.405,155.362 669.5,151C 683.113,148.672 696.78,146.672 710.5,145C 720.594,142.81 730.594,140.31 740.5,137.5C 742.211,106.272 757.877,85.4386 787.5,75C 810.089,70.1947 828.589,76.6947 843,94.5C 846.238,98.3088 848.404,102.642 849.5,107.5C 852.518,107.335 855.518,107.502 858.5,108C 861.832,113.106 860.498,116.606 854.5,118.5C 853.506,123.456 853.173,128.456 853.5,133.5C 859.81,133.93 861.477,136.763 858.5,142C 855.898,142.977 853.398,144.144 851,145.5C 850.134,149.264 848.967,152.931 847.5,156.5C 849.818,159.416 849.984,162.416 848,165.5C 842.798,168.028 838.131,171.361 834,175.5C 834.982,183.909 831.815,186.242 824.5,182.5C 806.022,191.567 787.355,191.733 768.5,183C 762.874,180.351 758.207,176.518 754.5,171.5C 753.277,170.386 751.944,170.219 750.5,171C 721.252,183.083 692.252,195.75 663.5,209C 651.5,210.667 639.5,212.333 627.5,214C 612.336,218.944 597.003,223.277 581.5,227C 571.809,228.002 562.143,229.169 552.5,230.5C 550.726,233.715 549.226,237.048 548,240.5C 547.333,253.167 547.333,265.833 548,278.5C 550.11,281.492 551.443,284.825 552,288.5C 552.72,302.857 553.72,317.19 555,331.5C 558.688,341.498 560.355,351.831 560,362.5C 562.79,371.325 564.79,380.325 566,389.5C 573.127,394.959 579.961,400.792 586.5,407C 599.006,418.839 607.839,433.006 613,449.5C 612.862,462.527 610.529,475.193 606,487.5C 604.248,490.672 602.248,493.672 600,496.5C 599.333,510.5 599.333,524.5 600,538.5C 602.985,551.773 605.652,565.106 608,578.5C 609.071,594.437 608.238,610.271 605.5,626C 606.014,636.888 610.014,646.222 617.5,654C 646.932,662.792 672.766,677.626 695,698.5C 703.382,708.548 711.382,718.881 719,729.5C 732.134,740.965 744.967,752.799 757.5,765C 767.633,773.154 778.8,779.654 791,784.5C 792.299,783.02 793.966,782.354 796,782.5C 801.479,783.486 806.979,783.652 812.5,783C 823.62,779.047 834.953,778.38 846.5,781C 849.822,781.059 852.656,782.226 855,784.5C 862.934,803.033 865.934,822.366 864,842.5C 863.197,845.244 862.197,847.911 861,850.5C 857.177,852.979 855.344,856.479 855.5,861C 857.787,868.864 860.287,876.697 863,884.5C 864.353,895.851 863.02,906.851 859,917.5C 852.637,925.195 844.47,929.362 834.5,930C 821.833,930.667 809.167,930.667 796.5,930C 790.956,929.485 785.623,928.152 780.5,926C 774.046,918.299 774.046,910.632 780.5,903C 785.167,901 789.833,899 794.5,897C 795.899,895.938 796.899,894.605 797.5,893C 795.665,887.497 793.165,882.33 790,877.5C 782.635,870.47 775.635,863.136 769,855.5C 768.727,853.899 768.227,852.399 767.5,851C 768.26,849.559 768.926,848.059 769.5,846.5C 749.524,827.359 728.191,809.859 705.5,794C 685.672,783.253 666.005,772.253 646.5,761C 630.186,748.51 613.52,736.51 596.5,725C 589.833,721.333 583.167,717.667 576.5,714C 563.552,710.446 552.385,703.946 543,694.5C 527.841,661.858 513.007,629.191 498.5,596.5C 485.379,600.728 473.046,606.561 461.5,614C 454.818,620.179 449.485,627.346 445.5,635.5C 448.888,641.829 451.388,648.496 453,655.5C 459.151,680.749 459.818,706.082 455,731.5C 454.341,762.288 456.008,792.955 460,823.5C 461.195,830.614 462.862,837.614 465,844.5C 467.74,845.282 470.574,845.782 473.5,846C 474.701,846.903 475.535,848.069 476,849.5C 481.574,866.888 486.741,884.388 491.5,902C 490.445,907.397 487.445,911.397 482.5,914C 472.798,920.351 462.465,925.351 451.5,929C 445.448,929.79 439.448,929.624 433.5,928.5C 428.406,937.089 421.073,942.922 411.5,946C 391.672,949.875 371.672,951.541 351.5,951C 341.904,947.666 337.404,940.833 338,930.5C 338.667,929.167 339.333,927.833 340,926.5C 346.419,920.471 352.252,913.971 357.5,907C 363.216,905.154 368.883,903.154 374.5,901C 382.866,893.62 389.366,884.787 394,874.5C 397.331,863.183 400.665,851.85 404,840.5C 405.584,839.139 407.418,838.472 409.5,838.5C 409.558,830.74 408.725,823.073 407,815.5C 402.004,799.844 397.004,784.178 392,768.5C 383.838,741.025 378.505,713.025 376,684.5C 375.667,671.167 375.333,657.833 375,644.5C 363.56,621.719 365.227,600.053 380,579.5C 384.633,573.865 389.633,568.532 395,563.5C 407,545.5 419,527.5 431,509.5C 442.919,495.525 455.419,482.025 468.5,469C 466.686,465.858 464.519,463.025 462,460.5C 461.667,457.5 461.333,454.5 461,451.5C 445.369,424.239 433.035,395.572 424,365.5C 419.23,356.731 412.064,350.898 402.5,348C 394.744,341.658 390.244,333.491 389,323.5C 388.201,317.515 387.535,311.515 387,305.5C 386.163,303.993 384.996,303.493 383.5,304C 377.957,309.874 372.79,316.041 368,322.5C 355.648,333.188 343.648,344.188 332,355.5C 330.078,361.43 326.578,366.263 321.5,370C 284.707,397.565 247.041,423.898 208.5,449C 206.623,451.251 205.123,453.751 204,456.5C 202.066,463.637 199.732,470.637 197,477.5C 191.131,485.687 183.298,491.187 173.5,494C 169.422,498.749 164.755,502.749 159.5,506C 153.896,508.121 148.396,507.954 143,505.5C 136.907,511.59 131.573,518.256 127,525.5C 124.795,528.04 122.295,530.207 119.5,532C 117.101,532.711 114.768,532.544 112.5,531.5C 107.719,534.809 104.385,533.809 102.5,528.5C 104.778,524.118 107.444,519.951 110.5,516C 104.363,516.23 102.196,513.397 104,507.5C 109.978,501.19 116.312,495.19 123,489.5C 123.471,487.754 124.138,486.087 125,484.5C 129.5,480.667 134,476.833 138.5,473C 151.059,465.108 163.059,456.441 174.5,447C 179.046,442.123 183.213,436.956 187,431.5C 205.455,413.376 222.122,393.709 237,372.5C 248.175,359.291 260.342,347.124 273.5,336C 282.265,330.2 290.765,324.034 299,317.5C 315.667,294.833 332.333,272.167 349,249.5C 351.833,247.333 354.667,245.167 357.5,243C 366.648,238.927 374.982,233.593 382.5,227C 380.213,224.038 377.38,221.871 374,220.5C 373.51,219.207 373.343,217.873 373.5,216.5C 372.448,216.649 371.448,216.483 370.5,216C 367.979,213.78 365.812,211.28 364,208.5C 360.949,211.374 358.282,211.041 356,207.5C 354.783,201.551 353.783,195.551 353,189.5C 348.711,188.023 345.378,185.356 343,181.5C 324.121,148.193 331.288,121.693 364.5,102C 370.274,99.5749 376.274,98.0749 382.5,97.5C 384.732,84.6086 392.066,76.6086 404.5,73.5 Z"/></g>
</svg>
