<?xml version="1.0" encoding="UTF-8"?>
<!DOCTYPE svg PUBLIC "-//W3C//DTD SVG 1.1//EN" "http://www.w3.org/Graphics/SVG/1.1/DTD/svg11.dtd">
<svg xmlns="http://www.w3.org/2000/svg" version="1.1" width="1024px" height="1024px" style="shape-rendering:geometricPrecision; text-rendering:geometricPrecision; image-rendering:optimizeQuality; fill-rule:evenodd; clip-rule:evenodd" xmlns:xlink="http://www.w3.org/1999/xlink">
<g><path style="opacity:0.985" fill="#000000" d="M 1023.5,223.5 C 1023.5,226.833 1023.5,230.167 1023.5,233.5C 1020.7,236.892 1020.03,240.726 1021.5,245C 1019.32,256.166 1014.15,265.666 1006,273.5C 998.888,282.102 989.721,286.936 978.5,288C 970.904,289.173 963.571,288.34 956.5,285.5C 952.543,286.071 948.876,287.405 945.5,289.5C 941.939,306.409 937.439,323.075 932,339.5C 928.467,346.04 923.8,351.706 918,356.5C 912.885,366.947 906.219,376.28 898,384.5C 893.742,393.607 890.076,402.941 887,412.5C 875.082,428.658 864.416,445.658 855,463.5C 854.267,474.504 851.267,484.838 846,494.5C 835.677,505.246 825.01,515.246 814,524.5C 811.129,523.791 808.295,523.291 805.5,523C 798.207,536.426 790.041,549.259 781,561.5C 771.702,569.977 762.035,577.977 752,585.5C 743.477,599.878 735.477,614.545 728,629.5C 722.275,643.284 716.275,656.951 710,670.5C 706.234,680.551 703.734,690.885 702.5,701.5C 702.833,702.833 703.167,704.167 703.5,705.5C 730.504,712.352 753.004,726.352 771,747.5C 777.12,755.955 783.62,764.121 790.5,772C 797.632,778.399 805.299,784.065 813.5,789C 827.576,802.414 842.243,815.081 857.5,827C 862.682,827.131 867.682,828.131 872.5,830C 880.662,834.247 888.662,838.747 896.5,843.5C 897.087,851.992 895.92,860.325 893,868.5C 881.667,894.5 870.333,920.5 859,946.5C 853.747,953.885 846.58,958.385 837.5,960C 830.541,961.331 823.541,961.664 816.5,961C 812.167,959.839 810.167,957.005 810.5,952.5C 810.594,950.077 811.094,947.744 812,945.5C 816.333,939.167 820.667,932.833 825,926.5C 827.943,920.838 829.776,914.838 830.5,908.5C 828.904,898.779 826.07,889.446 822,880.5C 819.961,878.126 817.628,876.126 815,874.5C 816.494,867.744 815.494,861.411 812,855.5C 809,851.167 806,846.833 803,842.5C 795.833,836 788.667,829.5 781.5,823C 747.402,802.563 713.569,781.73 680,760.5C 678.492,796.863 676.492,833.196 674,869.5C 673.333,881.167 673.333,892.833 674,904.5C 678.468,916.099 683.468,927.432 689,938.5C 690.778,946.103 689.278,953.103 684.5,959.5C 668.907,964.752 652.907,966.752 636.5,965.5C 616.69,969.644 596.69,971.477 576.5,971C 555.183,968.774 552.849,960.774 569.5,947C 580.333,940.751 591,934.251 601.5,927.5C 608.483,919.529 614.983,911.196 621,902.5C 624.47,897.226 627.136,891.56 629,885.5C 629.965,874.926 631.132,864.426 632.5,854C 626.934,818.437 620.767,782.937 614,747.5C 607.381,729.263 601.048,710.929 595,692.5C 595.808,672.639 598.475,652.972 603,633.5C 606.202,623.56 609.202,613.56 612,603.5C 623.136,578.394 633.302,552.894 642.5,527C 646.108,515.749 648.608,504.249 650,492.5C 653.966,478.936 659.299,465.936 666,453.5C 670.75,447.673 674.75,441.34 678,434.5C 678.333,430.167 678.667,425.833 679,421.5C 686.243,407.341 694.243,393.674 703,380.5C 707.634,376.868 711.967,372.868 716,368.5C 723.993,351.835 733.493,336.168 744.5,321.5C 720.392,311.401 696.058,301.568 671.5,292C 659.822,285.323 649.655,276.823 641,266.5C 633,254.5 625,242.5 617,230.5C 610.964,223.148 603.131,219.648 593.5,220C 588.54,216.284 583.207,215.617 577.5,218C 571.5,218.667 565.5,218.667 559.5,218C 558.492,213.649 559.825,209.982 563.5,207C 558.583,206.672 553.916,206.172 549.5,205.5C 548.812,211.254 547.645,216.921 546,222.5C 545.275,223.059 544.442,223.392 543.5,223.5C 526.703,210.536 511.37,196.036 497.5,180C 493.167,179 488.833,178 484.5,177C 483.5,176 482.5,175 481.5,174C 344.916,145.283 208.25,116.95 71.5,89C 68.8333,88.3333 66.1667,88.3333 63.5,89C 61.2852,90.0438 58.9519,90.7105 56.5,91C 50.0008,104.253 39.3341,110.253 24.5,109C 11.8355,106.163 3.50214,98.6625 -0.5,86.5C -0.5,81.8333 -0.5,77.1667 -0.5,72.5C 7.62997,51.6132 22.2966,45.1132 43.5,53C 53.8813,59.5895 59.2146,69.0895 59.5,81.5C 60.7003,82.5312 62.0337,83.3645 63.5,84C 203.817,112.775 344.151,141.442 484.5,170C 490.141,171.072 495.807,171.405 501.5,171C 507.921,168.193 514.588,166.193 521.5,165C 531.5,164 541.5,163 551.5,162C 555.221,160.497 558.888,160.831 562.5,163C 565.333,163.167 568.167,163.333 571,163.5C 579.499,162.106 587.999,160.939 596.5,160C 600.5,161.333 603.167,164 604.5,168C 608.729,169.115 612.729,170.781 616.5,173C 617.068,175.684 618.068,178.184 619.5,180.5C 641.905,190.357 664.905,198.524 688.5,205C 704.274,205.69 719.941,207.356 735.5,210C 746.815,213.158 757.815,217.158 768.5,222C 788.741,225.894 808.741,230.727 828.5,236.5C 840.31,233.841 851.976,230.674 863.5,227C 868.167,226.333 872.833,226.333 877.5,227C 881.169,228.355 884.835,229.355 888.5,230C 890.54,226.086 892.707,222.252 895,218.5C 895.622,214.971 895.455,211.471 894.5,208C 894.739,202.507 897.406,198.84 902.5,197C 906.703,195.407 911.036,194.074 915.5,193C 918.942,188.263 923.108,187.429 928,190.5C 929.232,187.7 929.899,184.7 930,181.5C 930.775,179.777 932.108,178.777 934,178.5C 939.39,180.882 944.557,183.715 949.5,187C 958.133,186.23 966.8,185.897 975.5,186C 991.956,188.811 1006.12,195.978 1018,207.5C 1020.77,212.639 1022.61,217.972 1023.5,223.5 Z M 533.5,168.5 C 538.214,168.173 542.88,168.507 547.5,169.5C 546.52,170.981 545.353,172.315 544,173.5C 542.388,179.078 540.221,184.411 537.5,189.5C 538.441,191.772 539.774,193.772 541.5,195.5C 540.362,199.258 541.362,202.425 544.5,205C 543.545,208.664 542.211,212.164 540.5,215.5C 526.409,203.744 513.742,190.744 502.5,176.5C 505.005,174.747 507.671,173.247 510.5,172C 518.253,170.447 525.92,169.28 533.5,168.5 Z"/></g>
</svg>
