<?xml version="1.0" encoding="UTF-8"?>
<!DOCTYPE svg PUBLIC "-//W3C//DTD SVG 1.1//EN" "http://www.w3.org/Graphics/SVG/1.1/DTD/svg11.dtd">
<svg xmlns="http://www.w3.org/2000/svg" version="1.1" width="1024px" height="1024px" style="shape-rendering:geometricPrecision; text-rendering:geometricPrecision; image-rendering:optimizeQuality; fill-rule:evenodd; clip-rule:evenodd" xmlns:xlink="http://www.w3.org/1999/xlink">
<g><path style="opacity:0.98" fill="#000000" d="M -0.5,374.5 C -0.5,368.833 -0.5,363.167 -0.5,357.5C 65.1993,376.675 130.866,396.009 196.5,415.5C 228.195,386.641 263.861,363.808 303.5,347C 294.596,342.363 285.262,338.696 275.5,336C 269.289,333.956 262.955,332.956 256.5,333C 242.273,347.112 226.273,358.779 208.5,368C 200.521,369.849 192.521,369.849 184.5,368C 183.712,364.924 183.212,361.758 183,358.5C 180.632,356.316 179.965,353.649 181,350.5C 188.518,335.314 198.018,321.481 209.5,309C 202.47,307.705 195.47,306.038 188.5,304C 184.313,301.6 183.646,298.6 186.5,295C 195.947,293.981 205.281,292.314 214.5,290C 218.833,289.333 223.167,289.333 227.5,290C 232.396,291.946 237.396,293.613 242.5,295C 269.335,298.367 295.668,304.034 321.5,312C 333.13,314.383 344.796,316.549 356.5,318.5C 374.379,312.707 392.546,308.04 411,304.5C 414.179,305.198 417.012,306.532 419.5,308.5C 443.249,303.583 467.249,300.75 491.5,300C 495.689,298.235 500.022,297.069 504.5,296.5C 540.791,299.655 575.125,309.488 607.5,326C 624.921,335.981 640.421,348.481 654,363.5C 658.141,368.449 660.641,374.116 661.5,380.5C 678.485,378.717 693.485,383.383 706.5,394.5C 707.5,394 708.5,393.5 709.5,393C 736.5,370 763.5,347 790.5,324C 802.998,314.579 816.332,306.412 830.5,299.5C 831.167,287.167 831.833,274.833 832.5,262.5C 841.907,257.829 851.574,257.329 861.5,261C 862.701,261.903 863.535,263.069 864,264.5C 864.651,270.827 865.151,277.16 865.5,283.5C 891.079,274.714 915.745,263.714 939.5,250.5C 943.255,243.991 946.755,237.324 950,230.5C 954.934,224.565 960.767,219.732 967.5,216C 972.5,211 977.5,206 982.5,201C 985.999,198.296 989.666,197.963 993.5,200C 994.059,200.725 994.392,201.558 994.5,202.5C 993.108,207.287 990.274,210.953 986,213.5C 985.517,214.448 985.351,215.448 985.5,216.5C 992.841,216.334 1000.17,216.5 1007.5,217C 1010.24,217.803 1012.91,218.803 1015.5,220C 1017.43,223.636 1019.6,227.136 1022,230.5C 1022.52,232.289 1022.19,233.956 1021,235.5C 1005.16,243.504 989.328,251.67 973.5,260C 961.118,270.05 948.451,279.717 935.5,289C 913.167,303.833 890.833,318.667 868.5,333.5C 868.167,337.333 867.833,341.167 867.5,345C 874.661,520.182 881.661,695.348 888.5,870.5C 875.75,871.135 863.25,870.468 851,868.5C 847.951,786.13 844.451,703.797 840.5,621.5C 673.702,572.401 506.868,523.401 340,474.5C 322.566,486.263 305.4,498.43 288.5,511C 287.892,512.231 287.559,513.564 287.5,515C 290.997,530.827 294.497,546.66 298,562.5C 298.809,581.858 298.642,601.191 297.5,620.5C 301.723,630.613 306.223,640.613 311,650.5C 313.573,651.806 315.906,653.473 318,655.5C 319.123,658.249 320.623,660.749 322.5,663C 336.073,662.188 348.406,665.855 359.5,674C 365.101,680.038 366.101,686.871 362.5,694.5C 359.641,704.605 356.474,714.605 353,724.5C 357.357,756.418 349.357,784.751 329,809.5C 324.175,816.33 317.675,819.497 309.5,819C 302.244,816.003 298.91,810.503 299.5,802.5C 301.515,791.57 302.348,780.57 302,769.5C 300.5,767.167 299,764.833 297.5,762.5C 294.495,766.506 291.995,770.84 290,775.5C 283.198,799.953 268.698,818.119 246.5,830C 239.839,833.232 232.839,834.232 225.5,833C 221.87,829.95 220.703,826.117 222,821.5C 226.726,810.381 231.726,799.381 237,788.5C 238.176,779.533 239.176,770.533 240,761.5C 240.607,757.619 242.274,754.286 245,751.5C 245.333,746.833 245.667,742.167 246,737.5C 248.019,734.486 250.352,731.82 253,729.5C 253.333,722.833 253.667,716.167 254,709.5C 254.196,707.096 255.362,705.429 257.5,704.5C 258.552,685.094 257.718,665.761 255,646.5C 254.439,644.275 253.439,642.275 252,640.5C 233.599,624.1 216.599,606.434 201,587.5C 185.829,566.987 169.162,547.654 151,529.5C 144.169,521.657 139.503,512.657 137,502.5C 135.214,492.315 137.214,482.982 143,474.5C 155.387,458.441 168.887,443.274 183.5,429C 122.234,410.518 60.901,392.351 -0.5,374.5 Z M 829.5,357.5 C 830.496,357.414 831.329,357.748 832,358.5C 835.428,440.486 838.095,522.486 840,604.5C 678.662,556.624 517.162,509.29 355.5,462.5C 355.281,461.325 355.614,460.325 356.5,459.5C 364.645,452.855 372.312,445.689 379.5,438C 397.566,435.822 415.232,431.822 432.5,426C 442.798,421.352 451.631,414.852 459,406.5C 477.418,414.528 495.918,422.362 514.5,430C 529.742,448.794 549.409,460.128 573.5,464C 583.999,466.75 594.666,468.417 605.5,469C 611.798,472.061 618.465,473.727 625.5,474C 621.325,475.584 617.659,477.918 614.5,481C 618.212,480.715 621.879,479.882 625.5,478.5C 633.458,481.283 633.124,481.95 624.5,480.5C 625.528,485.059 627.528,489.225 630.5,493C 628.536,493.624 626.869,493.124 625.5,491.5C 625.519,493.106 625.353,494.772 625,496.5C 630.468,501.153 636.634,504.653 643.5,507C 648.467,512.969 653.801,518.635 659.5,524C 663.038,526.846 667.038,527.846 671.5,527C 678.197,526.336 683.53,523.336 687.5,518C 736.777,511.654 757.61,483.821 750,434.5C 748.353,429.844 745.52,426.011 741.5,423C 756.222,407.945 771.889,393.945 788.5,381C 801.871,372.648 815.538,364.814 829.5,357.5 Z M 632.5,485.5 C 634.812,486.32 637.146,487.153 639.5,488C 638.975,488.692 638.308,489.192 637.5,489.5C 635.142,488.846 633.475,487.513 632.5,485.5 Z M 235.5,486.5 C 235.411,495.258 235.577,504.258 236,513.5C 236.892,519.611 237.892,525.611 239,531.5C 235.833,528.333 232.667,525.167 229.5,522C 221.5,516 213.5,510 205.5,504C 214.775,496.865 224.775,491.031 235.5,486.5 Z M 639.5,498.5 C 637.158,498.496 635.158,497.663 633.5,496C 635.821,495.992 637.821,496.825 639.5,498.5 Z"/></g>
</svg>
