<?xml version="1.0" encoding="UTF-8"?>
<!DOCTYPE svg PUBLIC "-//W3C//DTD SVG 1.1//EN" "http://www.w3.org/Graphics/SVG/1.1/DTD/svg11.dtd">
<svg xmlns="http://www.w3.org/2000/svg" version="1.1" width="1024px" height="1024px" style="shape-rendering:geometricPrecision; text-rendering:geometricPrecision; image-rendering:optimizeQuality; fill-rule:evenodd; clip-rule:evenodd" xmlns:xlink="http://www.w3.org/1999/xlink">
<g><path style="opacity:0.996" fill="#0f0e0c" d="M 650.5,111.5 C 687.475,112.373 707.142,131.373 709.5,168.5C 707.982,186.644 705.482,204.644 702,222.5C 700.479,227.044 698.312,231.211 695.5,235C 697.088,246.761 697.921,258.595 698,270.5C 705.922,293.857 712.756,317.524 718.5,341.5C 725.97,344.378 733.303,347.545 740.5,351C 747.833,357 754.5,363.667 760.5,371C 797.24,398.725 831.906,429.058 864.5,462C 877.741,473.233 892.074,482.9 907.5,491C 919.869,489.228 932.535,487.228 945.5,485C 948.893,484.202 952.226,483.202 955.5,482C 971.428,473.065 987.095,463.731 1002.5,454C 1007.97,452.779 1011.47,454.946 1013,460.5C 1018.22,488.177 1009.05,509.677 985.5,525C 976.622,529.606 967.622,533.939 958.5,538C 951.71,548.457 943.21,557.29 933,564.5C 932.5,657.833 932.333,751.166 932.5,844.5C 926.5,844.5 920.5,844.5 914.5,844.5C 914.667,753.833 914.5,663.166 914,572.5C 910.295,571.064 906.795,569.231 903.5,567C 898.611,563.105 894.111,558.939 890,554.5C 643.29,625.015 396.457,695.015 149.5,764.5C 149.833,815.171 149.5,865.838 148.5,916.5C 142.61,914.26 136.777,911.927 131,909.5C 130.8,860.826 130.3,812.159 129.5,763.5C 130.001,752.264 130.668,741.097 131.5,730C 376.822,660.146 622.822,590.146 869.5,520C 854.113,508.279 838.446,496.946 822.5,486C 804.306,476.069 785.306,468.069 765.5,462C 745.845,453.009 729.845,439.675 717.5,422C 713.689,418.26 709.356,415.26 704.5,413C 702.833,412.333 701.167,412.333 699.5,413C 687.303,419.732 674.303,424.066 660.5,426C 664.545,434.038 669.378,441.538 675,448.5C 687.792,464.294 700.958,479.794 714.5,495C 722.167,498 729.833,501 737.5,504C 742.805,508.14 746.805,513.307 749.5,519.5C 744.496,521.333 740.83,519.833 738.5,515C 735.794,513.092 732.794,512.259 729.5,512.5C 729.351,513.552 729.517,514.552 730,515.5C 732.723,518.557 735.056,521.89 737,525.5C 740.175,538.673 736.675,549.507 726.5,558C 724.559,558.743 722.726,558.576 721,557.5C 718.33,561.082 715.997,561.082 714,557.5C 711.501,549.678 709.835,541.678 709,533.5C 701.418,528.291 693.584,523.457 685.5,519C 684.333,517.833 683.167,516.667 682,515.5C 679.814,507.593 676.481,500.259 672,493.5C 662.202,482.034 652.036,470.867 641.5,460C 632.013,452.424 622.346,445.091 612.5,438C 596.224,435.141 579.891,434.808 563.5,437C 556.259,438.848 548.926,440.182 541.5,441C 516.075,442.064 490.741,441.23 465.5,438.5C 463.018,439.897 460.352,440.731 457.5,441C 452.5,441.333 447.5,441.667 442.5,442C 391.456,480.699 343.122,522.699 297.5,568C 288.176,575.333 278.176,581.666 267.5,587C 258.24,590.926 249.573,589.926 241.5,584C 235.281,578.283 229.614,572.117 224.5,565.5C 200.428,550.595 181.261,530.928 167,506.5C 156.751,488.329 145.751,470.663 134,453.5C 124.812,444.497 113.979,441.33 101.5,444C 91.6211,440.261 81.4544,437.761 71,436.5C 64.7764,436.972 58.6097,437.805 52.5,439C 43.3804,443.227 34.047,446.894 24.5,450C 8.95943,452.783 3.79276,446.617 9,431.5C 18.3546,410.076 34.1879,395.909 56.5,389C 67.67,387.899 78.67,385.899 89.5,383C 103.491,375.009 118.491,369.843 134.5,367.5C 140.328,367.831 145.161,370.164 149,374.5C 152.834,379.497 156.167,384.83 159,390.5C 161.368,396.646 160.868,402.48 157.5,408C 161.455,416.078 166.288,423.578 172,430.5C 181.852,440.166 192.352,448.999 203.5,457C 218.571,472.067 232.904,487.734 246.5,504C 251.413,506.587 255.58,505.753 259,501.5C 272.519,475.78 288.519,451.78 307,429.5C 319.962,414.203 333.295,399.203 347,384.5C 351.333,377.5 355.667,370.5 360,363.5C 365.239,351.114 371.239,339.114 378,327.5C 378.478,316.077 375.811,305.411 370,295.5C 365.913,292.084 362.58,288.084 360,283.5C 358.328,277.342 360.162,272.509 365.5,269C 380.539,262.823 393.872,254.156 405.5,243C 422.476,231.003 441.143,222.669 461.5,218C 482.608,200.61 504.941,184.944 528.5,171C 542.291,166.051 556.291,161.718 570.5,158C 583.34,150.096 597.34,146.763 612.5,148C 617.633,135.378 625.633,125.044 636.5,117C 641.046,114.545 645.712,112.712 650.5,111.5 Z M 687.5,343.5 C 681.532,341.566 675.532,339.733 669.5,338C 663.13,337.294 656.797,337.461 650.5,338.5C 651.572,333.411 649.905,329.578 645.5,327C 640.97,325.368 636.304,324.368 631.5,324C 624.144,323.831 616.811,323.331 609.5,322.5C 607.549,316.309 605.216,310.309 602.5,304.5C 609.061,302.22 615.394,299.387 621.5,296C 630.076,289.794 638.909,283.961 648,278.5C 649.179,281.519 650.513,284.519 652,287.5C 661.043,297.541 669.71,307.874 678,318.5C 682.061,326.518 685.227,334.851 687.5,343.5 Z"/></g>
</svg>
