<?xml version="1.0" encoding="UTF-8"?>
<!DOCTYPE svg PUBLIC "-//W3C//DTD SVG 1.1//EN" "http://www.w3.org/Graphics/SVG/1.1/DTD/svg11.dtd">
<svg xmlns="http://www.w3.org/2000/svg" version="1.1" width="1024px" height="1024px" style="shape-rendering:geometricPrecision; text-rendering:geometricPrecision; image-rendering:optimizeQuality; fill-rule:evenodd; clip-rule:evenodd" xmlns:xlink="http://www.w3.org/1999/xlink">
<g><path style="opacity:0.997" fill="#0f0e0c" d="M 1023.5,809.5 C 1023.5,809.833 1023.5,810.167 1023.5,810.5C 1022.68,812.389 1021.84,814.389 1021,816.5C 1002.22,834.277 983.722,852.444 965.5,871C 957.168,876.835 948.501,882.168 939.5,887C 938.167,887.667 936.833,887.667 935.5,887C 929.531,882.755 924.031,877.922 919,872.5C 915,865.167 911,857.833 907,850.5C 904.203,846.701 901.036,843.201 897.5,840C 872.907,819.029 846.24,801.029 817.5,786C 801.876,776.717 788.376,764.883 777,750.5C 770.5,738.833 764,727.167 757.5,715.5C 753,712.415 748.333,709.582 743.5,707C 727.578,700.246 711.911,692.913 696.5,685C 679.777,672.611 662.777,660.611 645.5,649C 631.433,642.643 617.266,636.476 603,630.5C 589.106,641.199 574.606,651.033 559.5,660C 554.721,663.478 550.221,667.311 546,671.5C 529.38,693.122 512.38,714.455 495,735.5C 492.333,740.167 489.667,744.833 487,749.5C 475.595,759.476 462.429,762.81 447.5,759.5C 444.386,762.375 440.719,764.209 436.5,765C 430.4,765.905 424.4,767.239 418.5,769C 409.618,773.275 400.618,777.275 391.5,781C 372.994,785.034 354.661,789.701 336.5,795C 333.833,796.333 331.167,797.667 328.5,799C 326.405,804.512 323.072,809.179 318.5,813C 308.33,819.252 297.997,825.252 287.5,831C 280.952,838.546 274.785,846.379 269,854.5C 262.993,861.848 255.827,867.681 247.5,872C 236.093,876.421 224.759,876.421 213.5,872C 205.977,865.07 203.477,856.57 206,846.5C 207.235,834.53 212.735,825.03 222.5,818C 230.999,813.252 239.332,808.252 247.5,803C 259.795,793.041 271.795,782.707 283.5,772C 287.007,769.746 290.673,767.746 294.5,766C 296.977,765.76 299.144,766.594 301,768.5C 309.436,767.58 317.936,766.747 326.5,766C 347.258,748.118 369.591,732.451 393.5,719C 407.314,713.693 421.647,711.359 436.5,712C 442.721,704.112 448.555,695.945 454,687.5C 458.699,682.466 463.699,677.8 469,673.5C 481.449,650.936 493.115,627.936 504,604.5C 506.416,599.999 509.083,595.666 512,591.5C 511.868,579.806 511.035,568.14 509.5,556.5C 510.005,549.792 510.838,543.126 512,536.5C 513.716,525.909 512.049,515.909 507,506.5C 498.606,494.436 490.606,482.103 483,469.5C 480.998,462.822 478.998,456.155 477,449.5C 470.563,442.52 463.063,436.854 454.5,432.5C 434.689,461.091 407.689,479.258 373.5,487C 367.49,490.755 360.99,493.255 354,494.5C 347.9,492.018 341.734,489.518 335.5,487C 312.893,472.194 289.227,459.194 264.5,448C 260.828,447.015 257.328,446.515 254,446.5C 246.116,451.195 238.282,456.028 230.5,461C 227.724,462.037 224.89,462.87 222,463.5C 219.192,462.614 216.359,462.447 213.5,463C 144.119,533.222 72.786,601.056 -0.5,666.5C -0.5,665.5 -0.5,664.5 -0.5,663.5C 63.732,593.095 128.565,523.095 194,453.5C 189.766,446.976 191.766,443.309 200,442.5C 201.107,442.585 202.107,442.919 203,443.5C 206.396,440.607 209.229,437.274 211.5,433.5C 209.985,429.269 210.485,425.269 213,421.5C 217.71,416.88 223.21,414.713 229.5,415C 319.104,320.395 409.77,226.728 501.5,134C 502.635,133.251 503.635,133.417 504.5,134.5C 427.532,232.33 345.532,326.163 258.5,416C 282.969,429.707 309.302,437.707 337.5,440C 343.725,441.779 349.391,444.612 354.5,448.5C 364.462,440.248 373.296,430.915 381,420.5C 388.99,411.168 398.157,403.334 408.5,397C 414.492,394.898 420.159,392.231 425.5,389C 432.167,381.333 438.833,373.667 445.5,366C 451.512,362.063 458.178,360.396 465.5,361C 472.622,351.543 480.122,342.376 488,333.5C 489.943,331.01 491.109,328.177 491.5,325C 490.311,319.095 488.144,313.595 485,308.5C 479.937,304.051 474.437,300.217 468.5,297C 454.537,282.922 448.703,266.088 451,246.5C 463.575,223.935 482.409,209.101 507.5,202C 519.232,199.732 524.732,204.566 524,216.5C 527.333,219.833 530.667,223.167 534,226.5C 534.895,228.804 535.729,231.138 536.5,233.5C 540.35,235.591 544.35,237.424 548.5,239C 549.126,239.75 549.626,240.584 550,241.5C 549.605,245.371 548.771,249.205 547.5,253C 548.428,258.88 549.595,264.714 551,270.5C 553.256,281.578 549.756,290.245 540.5,296.5C 541.667,296.833 542.833,297.167 544,297.5C 554.776,293.348 565.942,290.848 577.5,290C 592.114,273.842 610.114,268.176 631.5,273C 637.523,274.561 643.19,276.894 648.5,280C 664.491,279.445 680.491,279.112 696.5,279C 701.658,279.719 706.658,281.052 711.5,283C 715.551,285.28 719.718,287.113 724,288.5C 744.86,282.612 766.026,281.112 787.5,284C 796.073,286.024 804.74,287.524 813.5,288.5C 825.49,287.11 837.49,286.277 849.5,286C 861.867,290.926 874.534,294.926 887.5,298C 898.239,303.648 902.406,312.482 900,324.5C 899.103,329.899 895.937,332.565 890.5,332.5C 885.087,330.864 879.587,329.53 874,328.5C 865.381,331.887 857.214,331.054 849.5,326C 830.937,310.544 811.603,309.544 791.5,323C 776.76,329.018 761.427,332.518 745.5,333.5C 733.493,332.832 721.826,330.499 710.5,326.5C 683.373,332.138 656.373,331.804 629.5,325.5C 627.145,337.389 626.311,349.389 627,361.5C 628.473,365.779 630.473,369.779 633,373.5C 640.818,381.795 647.151,391.128 652,401.5C 652.794,404.471 653.461,407.471 654,410.5C 654.066,423.168 654.066,435.835 654,448.5C 655.925,457.607 658.258,466.607 661,475.5C 661.757,481.144 662.257,486.811 662.5,492.5C 661.133,509.338 659.799,526.171 658.5,543C 658.796,544.888 659.296,546.722 660,548.5C 663.534,552.369 667.367,555.869 671.5,559C 691.85,572.508 711.85,586.508 731.5,601C 746.425,613.756 759.759,627.922 771.5,643.5C 780.516,652.35 789.682,661.016 799,669.5C 806.327,681.122 812.327,693.455 817,706.5C 844.099,736.936 871.933,766.769 900.5,796C 921.526,810.057 944.193,813.39 968.5,806C 982.495,801.584 996.328,796.75 1010,791.5C 1013.42,791.919 1016.09,793.586 1018,796.5C 1020.73,800.561 1022.57,804.894 1023.5,809.5 Z"/></g>
</svg>
