<?xml version="1.0" encoding="UTF-8"?>
<!DOCTYPE svg PUBLIC "-//W3C//DTD SVG 1.1//EN" "http://www.w3.org/Graphics/SVG/1.1/DTD/svg11.dtd">
<svg xmlns="http://www.w3.org/2000/svg" version="1.1" width="1024px" height="1024px" style="shape-rendering:geometricPrecision; text-rendering:geometricPrecision; image-rendering:optimizeQuality; fill-rule:evenodd; clip-rule:evenodd" xmlns:xlink="http://www.w3.org/1999/xlink">
<g><path style="opacity:0.99" fill="#000000" d="M -0.5,620.5 C -0.5,613.167 -0.5,605.833 -0.5,598.5C 1.99825,586.484 6.49825,575.15 13,564.5C 22.974,552.98 33.3073,552.646 44,563.5C 50.1184,574.071 55.4517,585.071 60,596.5C 70.5489,614.049 84.7156,627.882 102.5,638C 108.888,641.861 115.554,645.194 122.5,648C 125.167,648.667 127.833,648.667 130.5,648C 132.095,644.142 134.428,640.809 137.5,638C 138.448,637.517 139.448,637.351 140.5,637.5C 144.337,623.181 153.671,617.014 168.5,619C 175.561,621.364 182.228,624.531 188.5,628.5C 195.344,623.911 202.01,619.078 208.5,614C 238.167,588.333 267.833,562.667 297.5,537C 318.619,517.563 337.119,496.063 353,472.5C 360.181,463.824 369.347,459.991 380.5,461C 387.897,462.687 394.897,465.354 401.5,469C 409.678,471.252 417.845,473.419 426,475.5C 426.554,460.616 434.054,451.449 448.5,448C 457.935,447.173 467.269,447.84 476.5,450C 486.833,450.667 497.167,450.667 507.5,450C 490.853,437.528 477.853,422.028 468.5,403.5C 456.838,399.923 446.671,393.923 438,385.5C 434.635,379.577 434.802,373.744 438.5,368C 435.53,367.237 433.03,365.737 431,363.5C 429.69,353.599 424.523,350.599 415.5,354.5C 409.708,353.076 407.708,349.576 409.5,344C 406.54,344.32 403.54,344.32 400.5,344C 398.171,340.371 395.837,336.704 393.5,333C 392.167,332.333 390.833,332.333 389.5,333C 386.897,336.276 383.73,338.776 380,340.5C 378.018,340.01 376.351,339.01 375,337.5C 373.16,330.623 371.826,323.623 371,316.5C 370.275,314.051 369.275,311.717 368,309.5C 361.667,304.5 355.333,299.5 349,294.5C 346.497,289.181 344.331,283.848 342.5,278.5C 341.91,279.766 341.41,281.099 341,282.5C 331.828,281.181 327.661,275.848 328.5,266.5C 330.618,240.976 338.785,217.643 353,196.5C 365.564,180.963 381.731,173.797 401.5,175C 410.576,178.053 419.909,180.053 429.5,181C 442.087,185.926 451.92,194.093 459,205.5C 468.361,221.607 474.028,238.94 476,257.5C 485.077,264.151 494.911,265.318 505.5,261C 523.309,247.003 543.309,240.836 565.5,242.5C 576.5,236.333 587.5,230.167 598.5,224C 611.391,220.264 624.058,220.931 636.5,226C 645.995,230.578 654.995,235.911 663.5,242C 698.54,245.235 731.873,254.569 763.5,270C 792.21,268.089 820.21,271.756 847.5,281C 877.155,292.218 906.488,304.218 935.5,317C 941.874,317.608 948.207,317.275 954.5,316C 961.604,313.946 968.604,311.613 975.5,309C 979.833,308.333 984.167,308.333 988.5,309C 993.766,312.592 998.766,316.592 1003.5,321C 1006.8,323.464 1009.13,326.63 1010.5,330.5C 1014.82,331.077 1018.32,333.077 1021,336.5C 1021.78,339.257 1021.28,341.757 1019.5,344C 1001.02,347.463 982.685,351.63 964.5,356.5C 955.611,356.113 947.611,353.28 940.5,348C 914.12,340.739 887.454,334.739 860.5,330C 844.884,328.255 829.217,327.255 813.5,327C 807.834,326.253 802.5,324.586 797.5,322C 788.83,321.905 780.163,321.905 771.5,322C 764.893,320.412 758.226,319.079 751.5,318C 725.496,316.866 699.496,316.7 673.5,317.5C 687.891,343.506 697.391,371.173 702,400.5C 713.426,420.689 722.092,442.022 728,464.5C 731.376,473.25 736.709,480.584 744,486.5C 761.714,511.938 763.714,538.605 750,566.5C 738.396,589.443 720.229,604.277 695.5,611C 690.833,611.667 686.167,612.333 681.5,613C 669.148,623.397 654.815,628.564 638.5,628.5C 626.63,627.966 614.963,626.133 603.5,623C 575.211,612.01 546.211,603.344 516.5,597C 502.079,592.527 488.246,586.694 475,579.5C 462.376,601.472 446.709,621.139 428,638.5C 393.333,677.167 358.667,715.833 324,754.5C 322.333,756.833 320.667,759.167 319,761.5C 318.387,770.953 316.053,779.953 312,788.5C 305.333,801.167 298.667,813.833 292,826.5C 279.426,849.186 262.593,853.019 241.5,838C 231.585,828.669 223.752,817.836 218,805.5C 212.643,789.763 206.31,774.429 199,759.5C 190.498,746.656 180.498,734.989 169,724.5C 155.772,738.397 141.939,751.564 127.5,764C 116.204,771.567 105.204,771.234 94.5,763C 89.2895,757.458 84.4562,751.625 80,745.5C 67.3333,726.167 54.6667,706.833 42,687.5C 31.2381,675.408 21.2381,662.742 12,649.5C 6.35021,640.355 2.18354,630.689 -0.5,620.5 Z M 338.5,273.5 C 341.324,273.989 342.657,275.656 342.5,278.5C 340.413,277.415 339.08,275.749 338.5,273.5 Z M 358.5,595.5 C 341.326,634.881 317.493,669.548 287,699.5C 278.183,690.401 272.183,692.068 269,704.5C 265.178,708.721 260.678,709.554 255.5,707C 240.489,699.987 231.489,688.32 228.5,672C 228.759,670.739 229.426,669.739 230.5,669C 262.348,649.236 295.348,631.236 329.5,615C 339.321,608.67 348.988,602.17 358.5,595.5 Z"/></g>
</svg>
