<?xml version="1.0" encoding="UTF-8"?>
<!DOCTYPE svg PUBLIC "-//W3C//DTD SVG 1.1//EN" "http://www.w3.org/Graphics/SVG/1.1/DTD/svg11.dtd">
<svg xmlns="http://www.w3.org/2000/svg" version="1.1" width="1024px" height="1024px" style="shape-rendering:geometricPrecision; text-rendering:geometricPrecision; image-rendering:optimizeQuality; fill-rule:evenodd; clip-rule:evenodd" xmlns:xlink="http://www.w3.org/1999/xlink">
<g><path style="opacity:0.96" fill="#000000" d="M 924.5,1023.5 C 914.833,1023.5 905.167,1023.5 895.5,1023.5C 892.96,906.581 889.626,789.748 885.5,673C 702.786,615.262 520.12,557.429 337.5,499.5C 337.288,502.652 337.288,505.985 337.5,509.5C 336.178,509.67 335.011,509.337 334,508.5C 332.448,504.667 330.615,501 328.5,497.5C 328.167,497.667 327.833,497.833 327.5,498C 328.658,502.754 329.158,507.588 329,512.5C 327.612,513.554 326.112,513.72 324.5,513C 323.088,506.853 321.588,500.686 320,494.5C 319.667,500.167 319.333,505.833 319,511.5C 317.333,512.833 315.667,512.833 314,511.5C 313.519,507.469 312.853,503.469 312,499.5C 309.882,503.62 308.215,507.953 307,512.5C 303.088,513.927 301.588,512.427 302.5,508C 303.015,502.411 304.015,496.911 305.5,491.5C 305.167,490.833 304.833,490.167 304.5,489.5C 295.236,486.518 285.903,483.851 276.5,481.5C 266.993,662.15 257.993,842.817 249.5,1023.5C 245.5,1023.5 241.5,1023.5 237.5,1023.5C 245.701,851.156 254.201,678.822 263,506.5C 263.832,496.483 263.666,486.483 262.5,476.5C 183.828,450.999 105.161,425.499 26.5,400C 23.8494,397.667 24.0161,395.833 27,394.5C 39.669,398.501 52.3357,402.501 65,406.5C 67.0924,406.121 69.0924,405.454 71,404.5C 74.0125,404.624 77.1792,404.791 80.5,405C 141.35,425.339 202.35,445.172 263.5,464.5C 264.086,464.291 264.586,463.957 265,463.5C 265.695,448.453 266.862,433.453 268.5,418.5C 271.897,417.506 275.231,417.84 278.5,419.5C 279.063,420.939 279.397,422.439 279.5,424C 277.867,439.187 277.2,454.354 277.5,469.5C 287.214,472.293 296.881,475.293 306.5,478.5C 311.485,471.876 315.985,464.876 320,457.5C 325.759,449.652 331.759,441.985 338,434.5C 343.617,420.559 351.283,407.893 361,396.5C 363.91,386.682 367.91,377.349 373,368.5C 373.667,365.5 373.667,362.5 373,359.5C 372.167,361.167 371.333,362.833 370.5,364.5C 363.865,367.504 357.198,369.671 350.5,371C 349.654,373.18 348.154,374.68 346,375.5C 342.677,374.34 339.677,372.674 337,370.5C 333.354,370.347 329.688,371.014 326,372.5C 323.433,371.861 320.933,371.361 318.5,371C 319.931,371.465 321.097,372.299 322,373.5C 325.583,379.147 324.417,379.981 318.5,376C 317.789,374.745 316.956,373.579 316,372.5C 316.904,375.026 317.238,377.692 317,380.5C 315.581,378.664 314.414,376.664 313.5,374.5C 310.973,373.786 308.473,373.12 306,372.5C 306.155,370.189 306.155,367.856 306,365.5C 304.086,363.252 302.586,360.752 301.5,358C 301.906,354.486 302.24,350.986 302.5,347.5C 300.728,346.73 299.728,345.397 299.5,343.5C 300.339,339.798 300.839,336.131 301,332.5C 292.203,332.968 283.37,332.301 274.5,330.5C 251.289,336.575 227.955,342.075 204.5,347C 195.082,351.14 185.748,355.473 176.5,360C 171.917,361.145 167.251,361.811 162.5,362C 160.359,363.308 158.359,364.808 156.5,366.5C 154.247,364.55 153.914,362.216 155.5,359.5C 150.925,359.378 146.258,359.212 141.5,359C 140.919,358.107 140.585,357.107 140.5,356C 143.687,350.134 147.687,344.801 152.5,340C 156.089,338.086 159.422,335.752 162.5,333C 170.486,331.389 178.486,331.222 186.5,332.5C 190.79,331.178 195.123,330.011 199.5,329C 211.717,323.391 224.05,318.058 236.5,313C 256.545,309.29 276.545,305.29 296.5,301C 308.727,296.295 321.394,293.962 334.5,294C 341.066,291.953 347.733,290.287 354.5,289C 359.239,284.781 364.239,280.781 369.5,277C 368.421,276.044 367.255,275.211 366,274.5C 363.839,261.751 364.172,249.084 367,236.5C 367.388,235.572 368.055,234.905 369,234.5C 379.981,240.072 390.814,245.739 401.5,251.5C 404.028,251.237 406.361,250.404 408.5,249C 419.5,248.667 430.5,248.333 441.5,248C 472.661,245.126 503.661,241.459 534.5,237C 542.927,238.58 550.26,242.247 556.5,248C 564.472,255.633 571.305,264.133 577,273.5C 584.448,279.465 591.948,285.299 599.5,291C 607.472,299.641 615.472,308.307 623.5,317C 626.167,318.667 628.833,320.333 631.5,322C 645.763,326.081 659.097,332.081 671.5,340C 675,343.5 678.5,347 682,350.5C 693.123,364.625 704.623,378.459 716.5,392C 724.034,393.289 731.034,395.956 737.5,400C 740.491,402.99 742.657,406.49 744,410.5C 744.04,423.491 746.04,436.158 750,448.5C 752.172,460.653 749.005,471.153 740.5,480C 737.443,482.723 734.11,485.056 730.5,487C 724.653,488.328 720.82,486.161 719,480.5C 716.028,466.627 714.361,452.627 714,438.5C 712.932,434.984 710.932,432.317 708,430.5C 704.074,431.964 700.407,433.964 697,436.5C 695.635,435.407 695.301,434.074 696,432.5C 698.039,430.126 700.372,428.126 703,426.5C 704.921,423.746 705.588,420.746 705,417.5C 700.009,408.5 693.509,400.667 685.5,394C 672.706,385.097 659.706,376.431 646.5,368C 638.458,363.319 629.791,360.653 620.5,360C 601.925,353.796 584.425,345.296 568,334.5C 567.802,338.596 568.469,342.596 570,346.5C 574.667,357.833 579.333,369.167 584,380.5C 590.594,391.425 598.927,400.758 609,408.5C 613.576,413.987 617.909,419.653 622,425.5C 630.361,449.557 641.861,471.891 656.5,492.5C 664.041,495.519 669.874,500.519 674,507.5C 674.997,510.801 675.33,514.134 675,517.5C 668.333,525.5 661.667,533.5 655,541.5C 653.528,545.723 652.528,550.057 652,554.5C 651.439,556.725 650.439,558.725 649,560.5C 644.123,565.046 638.956,569.213 633.5,573C 629.615,574.095 625.782,575.261 622,576.5C 618.866,575.198 617.032,572.865 616.5,569.5C 618.986,565.199 621.486,560.865 624,556.5C 625.067,551.632 626.734,546.966 629,542.5C 630.927,535.161 630.927,527.827 629,520.5C 626.57,518.191 623.737,516.525 620.5,515.5C 619.319,513.802 619.319,512.135 620.5,510.5C 621.429,511.689 621.762,513.022 621.5,514.5C 623.833,514.5 626.167,514.5 628.5,514.5C 628.5,513.5 628.5,512.5 628.5,511.5C 633.134,512.441 634.301,511.107 632,507.5C 626.189,495.372 619.189,484.039 611,473.5C 595.7,458.208 582.7,441.208 572,422.5C 560.791,413.292 551.791,402.292 545,389.5C 539.081,385.791 533.248,381.958 527.5,378C 521,371.5 514.5,365 508,358.5C 498.418,344.337 489.084,330.004 480,315.5C 468.206,321.264 456.373,327.097 444.5,333C 439.992,335.753 435.659,338.753 431.5,342C 423.746,346.294 415.913,350.461 408,354.5C 406.314,361.242 404.314,367.909 402,374.5C 391.384,392.687 381.717,411.354 373,430.5C 370.667,433.833 368.333,437.167 366,440.5C 355.64,450.195 345.307,459.861 335,469.5C 334.853,474.955 334.02,480.288 332.5,485.5C 332.833,486.167 333.167,486.833 333.5,487.5C 516.091,545.975 698.757,604.142 881.5,662C 883.538,663.236 884.705,665.069 885,667.5C 885.311,665.444 885.811,663.444 886.5,661.5C 885.408,647.215 884.742,632.882 884.5,618.5C 855.778,608.871 826.945,599.537 798,590.5C 797.127,590.735 796.293,591.069 795.5,591.5C 793.992,589.493 792.158,587.826 790,586.5C 789.833,584.833 789.667,583.167 789.5,581.5C 788.839,575.992 791.172,573.825 796.5,575C 825.218,584.509 853.885,594.009 882.5,603.5C 882.833,598.5 883.167,593.5 883.5,588.5C 878.41,394.787 872.577,201.12 866,7.5C 875.451,-0.546827 884.451,-0.213494 893,8.5C 893.75,18.4945 894.416,28.4945 895,38.5C 900.008,203.823 904.675,369.157 909,534.5C 910.487,558.48 911.82,582.48 913,606.5C 913.374,607.416 913.874,608.25 914.5,609C 918.677,611.059 923.01,612.726 927.5,614C 928.69,616.116 930.023,618.116 931.5,620C 953.821,627.105 975.821,634.772 997.5,643C 999.283,647.376 998.616,651.21 995.5,654.5C 974.526,647.564 953.526,640.731 932.5,634C 929.28,633.843 926.113,634.343 923,635.5C 920.178,634.725 917.344,634.058 914.5,633.5C 913.213,648.358 913.546,663.192 915.5,678C 914.88,684.81 914.547,691.643 914.5,698.5C 917.166,785.821 919.333,873.154 921,960.5C 921.148,981.565 922.314,1002.57 924.5,1023.5 Z M 301.5,342.5 C 302.289,342.783 302.956,343.283 303.5,344C 302.184,344.528 301.517,344.028 301.5,342.5 Z M 307.5,349.5 C 308.688,351.496 308.021,352.329 305.5,352C 306.381,351.292 307.047,350.458 307.5,349.5 Z M 308.5,358.5 C 310.225,358.843 310.725,359.843 310,361.5C 308.989,362.337 307.822,362.67 306.5,362.5C 306.527,360.801 307.194,359.467 308.5,358.5 Z M 324.5,367.5 C 325.675,367.281 326.675,367.614 327.5,368.5C 325.948,369.798 324.948,369.465 324.5,367.5 Z M 311.5,370.5 C 312.077,369.227 312.743,369.227 313.5,370.5C 313.03,371.463 312.363,371.463 311.5,370.5 Z"/></g>
</svg>
