<?xml version="1.0" encoding="UTF-8"?>
<!DOCTYPE svg PUBLIC "-//W3C//DTD SVG 1.1//EN" "http://www.w3.org/Graphics/SVG/1.1/DTD/svg11.dtd">
<svg xmlns="http://www.w3.org/2000/svg" version="1.1" width="1024px" height="1024px" style="shape-rendering:geometricPrecision; text-rendering:geometricPrecision; image-rendering:optimizeQuality; fill-rule:evenodd; clip-rule:evenodd" xmlns:xlink="http://www.w3.org/1999/xlink">
<g><path style="opacity:0.977" fill="#000000" d="M 697.5,153.5 C 709.874,152.012 721.54,154.178 732.5,160C 738.529,165.554 742.362,172.387 744,180.5C 750.42,206.347 749.92,232.013 742.5,257.5C 741.99,259.088 740.99,260.255 739.5,261C 731.406,264.124 724.24,268.624 718,274.5C 715.06,280.046 712.394,285.713 710,291.5C 713.009,322.43 715.509,353.43 717.5,384.5C 749.71,387.024 781.71,385.524 813.5,380C 821.029,378.268 828.362,375.935 835.5,373C 839.5,372.333 843.5,372.333 847.5,373C 851.512,373.849 853.512,376.349 853.5,380.5C 853.081,389.411 849.748,396.911 843.5,403C 840.637,404.399 837.637,405.399 834.5,406C 808.382,409.697 782.382,414.031 756.5,419C 734.428,419.682 712.428,418.682 690.5,416C 688.714,415.215 687.214,414.049 686,412.5C 684.92,410.004 683.586,407.67 682,405.5C 668.381,424.868 653.215,443.035 636.5,460C 621.598,468.576 611.431,481.076 606,497.5C 604.71,502.11 604.376,506.777 605,511.5C 614.059,523.565 624.226,534.731 635.5,545C 647.839,552.168 659.839,559.834 671.5,568C 691.807,587.3 710.64,607.8 728,629.5C 732.118,637.853 735.452,646.52 738,655.5C 747.463,688.201 757.296,720.701 767.5,753C 773.668,755.125 780.001,756.459 786.5,757C 810.505,759 834.505,761 858.5,763C 857.833,764.333 856.833,765.333 855.5,766C 834.665,769.584 813.665,771.584 792.5,772C 787.213,772.096 782.379,773.596 778,776.5C 777.358,778.762 776.525,780.929 775.5,783C 778.257,787.179 781.257,791.179 784.5,795C 795.404,799.375 806.737,802.041 818.5,803C 854.458,805.928 890.458,808.261 926.5,810C 931.867,810.403 937.201,811.07 942.5,812C 943.167,812.667 943.833,813.333 944.5,814C 915.483,816.055 886.316,817.555 857,818.5C 846.114,819.172 835.28,820.339 824.5,822C 818.062,822.813 812.062,824.813 806.5,828C 805.707,831.411 805.207,834.911 805,838.5C 802.427,841.028 799.261,842.028 795.5,841.5C 793.167,841.333 790.833,841.167 788.5,841C 785.282,838.223 781.615,836.223 777.5,835C 774.678,828.844 770.011,824.844 763.5,823C 752.772,819.388 741.772,817.054 730.5,816C 572.506,814.725 414.506,814.058 256.5,814C 252.825,813.835 250.158,812.168 248.5,809C 249.328,808.085 250.328,807.419 251.5,807C 277.484,805.2 303.484,805.033 329.5,806.5C 358.458,804.319 387.458,803.152 416.5,803C 519.176,801.863 621.843,800.196 724.5,798C 730.581,797.862 736.581,797.196 742.5,796C 744.879,787.182 742.879,779.515 736.5,773C 729.108,770.156 721.442,768.489 713.5,768C 654.155,767.744 594.822,768.577 535.5,770.5C 487.503,769.48 439.503,769.314 391.5,770C 387.137,770.369 382.804,770.869 378.5,771.5C 378.762,772.978 378.429,774.311 377.5,775.5C 376.756,774.009 376.09,772.509 375.5,771C 371.351,769.263 367.017,768.263 362.5,768C 343.242,766.901 324.075,767.734 305,770.5C 282.854,768.946 260.687,767.779 238.5,767C 196.488,766.579 154.488,765.746 112.5,764.5C 112.137,762.089 113.137,760.589 115.5,760C 119.167,759.667 122.833,759.333 126.5,759C 187.167,758.667 247.833,758.333 308.5,758C 337.188,757.166 365.855,755.999 394.5,754.5C 421,755.484 447.5,756.484 474,757.5C 480.685,757.429 487.351,757.096 494,756.5C 495.167,756.167 496.333,755.833 497.5,755.5C 492.585,738.762 488.752,721.762 486,704.5C 480.555,691.501 475.888,678.168 472,664.5C 462.818,670.509 452.985,675.009 442.5,678C 421.237,681.919 399.904,685.419 378.5,688.5C 375.972,688.237 373.639,687.404 371.5,686C 369.5,685.333 367.5,685.333 365.5,686C 362.462,688.703 359.795,691.703 357.5,695C 355.091,696.707 352.425,697.54 349.5,697.5C 349.66,695.801 349.494,694.134 349,692.5C 347.938,691.903 346.772,691.57 345.5,691.5C 324.028,694.21 302.694,697.71 281.5,702C 276.833,704 272.167,706 267.5,708C 252.661,716.587 237.661,724.92 222.5,733C 220.26,733.977 217.927,734.477 215.5,734.5C 216.89,726.162 219.39,718.162 223,710.5C 232.844,696.338 243.011,682.505 253.5,669C 277.303,668.511 300.97,666.511 324.5,663C 334.025,660.603 343.358,657.603 352.5,654C 372.268,649.858 392.268,646.525 412.5,644C 423.639,643.636 432.139,638.802 438,629.5C 440.504,623.983 443.004,618.483 445.5,613C 442.542,612.771 440.042,611.604 438,609.5C 434.457,600.235 429.291,592.068 422.5,585C 409.688,578.093 396.688,571.427 383.5,565C 372.124,556.977 360.124,549.977 347.5,544C 343.291,542.365 338.958,541.198 334.5,540.5C 327.507,542.495 320.84,545.328 314.5,549C 292.949,562.442 270.282,573.776 246.5,583C 234.025,586.354 221.358,588.687 208.5,590C 184.779,592.205 161.113,594.872 137.5,598C 107.979,602.506 80.3123,612.173 54.5,627C 46.5124,632.655 39.5124,639.322 33.5,647C 31.5405,647.931 29.5405,648.764 27.5,649.5C 27.3509,642.727 28.5176,636.06 31,629.5C 37.7475,617.337 43.4141,604.67 48,591.5C 52.9398,589.306 58.1065,587.806 63.5,587C 77.3385,586.092 91.0051,584.092 104.5,581C 117.218,574.095 130.552,568.761 144.5,565C 168.441,561.783 192.441,559.116 216.5,557C 237.495,544.008 255.328,527.508 270,507.5C 282.19,485.943 296.69,466.11 313.5,448C 318.688,444.138 323.855,440.305 329,436.5C 332.399,430.432 336.565,424.932 341.5,420C 338.583,414.082 334.083,409.915 328,407.5C 327.265,405.129 326.432,402.795 325.5,400.5C 318.455,395.953 312.955,389.953 309,382.5C 301.58,370.826 295.08,358.659 289.5,346C 298.972,329.525 311.306,315.525 326.5,304C 344.83,291.833 363.497,280.166 382.5,269C 387.624,266.438 392.957,264.438 398.5,263C 411.395,261.285 424.228,259.451 437,257.5C 438.399,254.637 439.399,251.637 440,248.5C 442.813,227.185 445.479,205.852 448,184.5C 448.27,181.638 449.104,178.972 450.5,176.5C 457.683,172.495 465.349,169.995 473.5,169C 485.557,168.459 497.557,169.126 509.5,171C 516.087,179.064 520.587,188.23 523,198.5C 524.737,204.949 526.237,211.449 527.5,218C 525.162,230.187 521.662,242.02 517,253.5C 514.408,256.762 511.241,259.262 507.5,261C 498.084,264.134 488.918,267.634 480,271.5C 479.333,276.167 479.333,280.833 480,285.5C 489.216,303.363 494.216,322.363 495,342.5C 495.414,342.957 495.914,343.291 496.5,343.5C 526.959,331.295 556.626,317.462 585.5,302C 603.4,295.923 621.067,289.256 638.5,282C 646.825,278.004 654.325,272.838 661,266.5C 661.833,264.833 662.667,263.167 663.5,261.5C 660.546,242.351 655.713,223.685 649,205.5C 647.994,195.179 650.66,185.845 657,177.5C 667.455,164.182 680.955,156.182 697.5,153.5 Z M 356.5,333.5 C 358.167,333.5 359.833,333.5 361.5,333.5C 360.147,349.1 357.313,364.433 353,379.5C 352.096,384.461 349.763,385.461 346,382.5C 340.923,372.178 335.756,362.011 330.5,352C 330.592,347.528 332.592,344.194 336.5,342C 342.92,338.282 349.586,335.449 356.5,333.5 Z M 570.5,357.5 C 576.113,356.079 578.28,358.079 577,363.5C 572.335,377.16 566.335,390.16 559,402.5C 556.097,405.576 552.597,407.576 548.5,408.5C 543.808,407.103 539.141,405.603 534.5,404C 526.247,398.624 518.08,393.124 510,387.5C 509.333,385.833 509.333,384.167 510,382.5C 512.921,380.288 516.088,378.455 519.5,377C 537.029,371.551 554.029,365.051 570.5,357.5 Z M 461.5,371.5 C 463.604,371.201 465.604,371.534 467.5,372.5C 463.878,383.98 459.045,394.98 453,405.5C 448.802,417.157 446.135,429.157 445,441.5C 442.418,466.81 440.585,492.143 439.5,517.5C 440.145,522.18 440.645,527.18 441,532.5C 442.191,534.915 444.191,536.248 447,536.5C 452.668,535.857 458.168,534.524 463.5,532.5C 464.584,531.335 465.417,530.002 466,528.5C 467.759,515.547 469.092,502.547 470,489.5C 473.426,463.986 482.426,440.653 497,419.5C 501.097,422.298 505.597,424.131 510.5,425C 521.954,426.824 533.288,428.824 544.5,431C 543.363,436.706 541.53,442.206 539,447.5C 529.713,459.789 520.046,471.789 510,483.5C 507.417,486.997 505.084,490.664 503,494.5C 499.375,505.665 496.375,516.998 494,528.5C 486.986,549.033 476.486,567.533 462.5,584C 460.899,584.273 459.399,584.773 458,585.5C 454.63,574.418 448.963,564.751 441,556.5C 438.746,552.993 436.746,549.327 435,545.5C 429.377,541.545 424.043,537.212 419,532.5C 407.991,518.662 396.824,504.995 385.5,491.5C 388.141,466.21 399.141,445.543 418.5,429.5C 433.541,412.948 446.041,394.615 456,374.5C 457.876,373.391 459.709,372.391 461.5,371.5 Z M 561.5,576.5 C 567.268,576.442 572.601,577.942 577.5,581C 587.156,588.163 597.156,594.83 607.5,601C 629.5,612.667 651.5,624.333 673.5,636C 683.612,642.104 690.779,650.604 695,661.5C 698.158,677.291 701.825,692.958 706,708.5C 710.809,720.125 717.142,730.792 725,740.5C 726.628,744.781 726.795,749.114 725.5,753.5C 720.434,755.787 715.1,756.954 709.5,757C 654.119,757.444 598.786,756.11 543.5,753C 536.876,747.283 531.042,740.783 526,733.5C 516.404,718.384 509.738,702.05 506,684.5C 502.974,669.872 500.141,655.206 497.5,640.5C 497.622,638.209 498.455,636.209 500,634.5C 508.895,623.936 518.729,614.436 529.5,606C 533.419,604.138 537.419,602.471 541.5,601C 547.622,592.379 554.289,584.212 561.5,576.5 Z"/></g>
<g><path style="opacity:0.924" fill="#000000" d="M 122.5,857.5 C 411.676,858.806 700.843,858.806 990,857.5C 995.812,857.312 997.812,859.979 996,865.5C 995.196,866.804 994.029,867.471 992.5,867.5C 989.833,866.833 987.167,866.167 984.5,865.5C 979.649,867.463 974.649,868.963 969.5,870C 924.5,870.167 879.5,870.333 834.5,870.5C 573.492,871.114 312.492,870.447 51.5,868.5C 51.178,866.278 51.8446,864.444 53.5,863C 56.7895,862.118 60.1228,861.452 63.5,861C 83.3081,859.531 102.975,858.364 122.5,857.5 Z"/></g>
</svg>
