<?xml version="1.0" encoding="UTF-8"?>
<!DOCTYPE svg PUBLIC "-//W3C//DTD SVG 1.1//EN" "http://www.w3.org/Graphics/SVG/1.1/DTD/svg11.dtd">
<svg xmlns="http://www.w3.org/2000/svg" version="1.1" width="1024px" height="1024px" style="shape-rendering:geometricPrecision; text-rendering:geometricPrecision; image-rendering:optimizeQuality; fill-rule:evenodd; clip-rule:evenodd" xmlns:xlink="http://www.w3.org/1999/xlink">
<g><path style="opacity:0.973" fill="#000000" d="M 330.5,338.5 C 337.67,338.501 344.337,340.334 350.5,344C 354.666,346.917 358.999,349.584 363.5,352C 370.892,358.556 372.559,366.222 368.5,375C 368.585,376.107 368.919,377.107 369.5,378C 368.726,380.405 368.226,382.905 368,385.5C 365.927,388.73 364.094,392.063 362.5,395.5C 363.362,399.453 363.695,403.453 363.5,407.5C 361.167,407.5 358.833,407.5 356.5,407.5C 356.5,408.833 356.5,410.167 356.5,411.5C 363.711,413.931 371.045,416.097 378.5,418C 394.853,417.661 411.02,419.161 427,422.5C 435.818,421.47 444.651,421.304 453.5,422C 465.022,425.304 476.689,427.971 488.5,430C 497.437,431.58 506.104,431.913 514.5,431C 522.965,434.565 531.631,437.565 540.5,440C 541.859,441.204 542.859,442.704 543.5,444.5C 559.73,450.632 576.064,456.466 592.5,462C 596.393,465.588 596.393,469.254 592.5,473C 590.5,473.667 588.5,473.667 586.5,473C 570.394,467.779 554.394,462.279 538.5,456.5C 537.174,457.99 535.674,459.324 534,460.5C 531.75,459.292 529.583,457.959 527.5,456.5C 524.338,458.19 521.172,458.856 518,458.5C 514.859,457.257 511.692,456.09 508.5,455C 505.783,450.616 502.116,447.282 497.5,445C 486.127,444.505 474.794,445.005 463.5,446.5C 449.184,446.098 435.017,444.431 421,441.5C 412.64,443.682 404.14,444.848 395.5,445C 378.167,445.333 360.833,445.667 343.5,446C 346.282,454.603 347.116,463.437 346,472.5C 344.604,476.792 342.104,480.292 338.5,483C 334.405,485.361 330.238,487.527 326,489.5C 323.557,502.588 319.557,515.255 314,527.5C 312.525,532.063 311.692,536.73 311.5,541.5C 318.207,540.849 324.54,542.015 330.5,545C 339.561,546.343 348.561,548.01 357.5,550C 371.341,554.28 385.341,557.947 399.5,561C 405.643,562.654 411.143,565.488 416,569.5C 417.861,571.888 419.194,574.554 420,577.5C 421.999,604.829 423.999,632.163 426,659.5C 426.808,670.61 428.308,681.61 430.5,692.5C 431.552,692.351 432.552,692.517 433.5,693C 436.919,698.068 441.586,701.735 447.5,704C 453.179,705.168 458.845,706.335 464.5,707.5C 468.828,706.169 473.161,704.835 477.5,703.5C 482.359,703.52 484.525,705.853 484,710.5C 479.329,718.836 472.495,724.669 463.5,728C 447.398,730.353 431.731,734.353 416.5,740C 413.571,740.777 410.737,740.61 408,739.5C 407.663,733.072 406.829,726.572 405.5,720C 407.139,715.049 408.139,710.049 408.5,705C 407.204,694.982 405.037,685.149 402,675.5C 397.527,662.413 392.86,649.413 388,636.5C 386.184,624.908 385.017,613.241 384.5,601.5C 378.218,600.374 371.885,600.207 365.5,601C 343.342,605.061 321.009,607.561 298.5,608.5C 290.862,608.189 283.362,607.189 276,605.5C 273.077,611.015 270.41,616.682 268,622.5C 262.727,629.118 257.394,635.785 252,642.5C 233.781,659.39 215.615,676.223 197.5,693C 194.911,694.197 192.244,695.197 189.5,696C 177.045,696.236 164.711,697.569 152.5,700C 132.332,705.1 111.999,709.434 91.5,713C 82.3843,715.207 73.3843,717.707 64.5,720.5C 64.67,721.822 64.3366,722.989 63.5,724C 52.5755,730.559 42.4089,738.392 33,747.5C 29.5396,753.59 25.7062,759.423 21.5,765C 18.6917,765.92 16.5251,765.087 15,762.5C 10.6044,751.887 10.6044,741.22 15,730.5C 22.8875,716.175 29.2208,701.175 34,685.5C 35.5994,683.964 37.4328,683.464 39.5,684C 45.5489,687.027 50.8822,691.027 55.5,696C 59.1667,696.667 62.8333,696.667 66.5,696C 86.875,687.432 106.875,678.099 126.5,668C 136.493,664.545 146.659,663.712 157,665.5C 166.548,663.295 173.881,657.962 179,649.5C 187.368,629.756 198.034,611.423 211,594.5C 214.305,581.64 216.972,568.64 219,555.5C 222.734,542.266 231.234,533.932 244.5,530.5C 248.519,524.469 253.019,518.802 258,513.5C 259.015,509.235 259.515,504.902 259.5,500.5C 257.34,488.644 256.007,476.644 255.5,464.5C 257.175,454.625 257.841,444.959 257.5,435.5C 238.668,443.945 219.335,451.112 199.5,457C 195.689,460.74 191.356,463.74 186.5,466C 174.798,471.674 163.132,477.34 151.5,483C 148,485.833 144.5,488.667 141,491.5C 139.682,501.613 137.849,511.613 135.5,521.5C 133.856,521.714 132.356,521.38 131,520.5C 129.873,517.623 129.206,514.623 129,511.5C 125.532,516.934 121.699,522.101 117.5,527C 115.598,528.301 113.598,528.968 111.5,529C 110.483,527.951 110.316,526.784 111,525.5C 114.909,521.353 118.076,516.686 120.5,511.5C 120.167,511.167 119.833,510.833 119.5,510.5C 114.727,515.195 110.061,520.028 105.5,525C 103.866,525.494 102.199,525.66 100.5,525.5C 102.312,519.488 105.645,514.322 110.5,510C 109.833,509.333 109.167,509.333 108.5,510C 105.265,513.941 101.265,516.275 96.5,517C 96.0426,516.586 95.7093,516.086 95.5,515.5C 98.68,510.377 102.68,505.877 107.5,502C 104.165,502.494 100.832,503.327 97.5,504.5C 93.8343,504.631 92.8343,503.131 94.5,500C 100.779,497.527 106.779,494.527 112.5,491C 116.876,484.956 122.21,479.956 128.5,476C 145.167,464.667 161.833,453.333 178.5,442C 186.051,437.557 194.051,434.223 202.5,432C 215.233,423.965 228.567,416.965 242.5,411C 248.108,407.724 253.442,404.057 258.5,400C 264.581,397.229 270.914,395.229 277.5,394C 278.731,392.817 278.731,391.651 277.5,390.5C 274.183,392.784 270.85,392.951 267.5,391C 272.426,390.501 274.593,387.667 274,382.5C 275.358,380.141 276.358,377.807 277,375.5C 275.667,376.833 274.333,378.167 273,379.5C 272.333,378.5 272.333,377.5 273,376.5C 277.166,371.995 282,368.328 287.5,365.5C 290.05,359.007 292.883,352.674 296,346.5C 303.392,339.34 311.892,337.673 321.5,341.5C 324.582,340.365 327.582,339.365 330.5,338.5 Z M 301.5,381.5 C 302.189,384.038 303.189,386.538 304.5,389C 303.906,391.79 302.739,394.29 301,396.5C 299.491,395.91 297.991,395.244 296.5,394.5C 299.546,390.696 301.212,386.362 301.5,381.5 Z M 295.5,387.5 C 295.585,391.939 293.585,394.105 289.5,394C 291.734,391.937 293.734,389.771 295.5,387.5 Z"/></g>
<g><path style="opacity:0.975" fill="#000000" d="M 881.5,340.5 C 890.891,340.147 900.225,340.647 909.5,342C 914.625,345.128 920.125,347.294 926,348.5C 926.308,347.692 926.808,347.025 927.5,346.5C 935.261,350.282 937.094,355.949 933,363.5C 931.062,366.106 928.562,367.939 925.5,369C 926.792,371.709 927.792,374.542 928.5,377.5C 927.031,380.722 926.531,384.056 927,387.5C 928.961,389.928 930.794,392.428 932.5,395C 931.214,396.649 929.547,397.815 927.5,398.5C 926.708,400.465 926.041,402.465 925.5,404.5C 923.176,405.662 920.842,406.829 918.5,408C 922.12,410.703 922.287,413.537 919,416.5C 918.667,418.833 918.333,421.167 918,423.5C 916.687,424.573 915.187,425.24 913.5,425.5C 908.311,423.659 903.144,421.659 898,419.5C 892.533,420.651 887.7,422.984 883.5,426.5C 888.968,429.738 894.301,433.238 899.5,437C 904.97,442.291 909.97,447.958 914.5,454C 927.046,458.499 937.213,465.999 945,476.5C 950.217,471.474 956.05,467.308 962.5,464C 972.025,454.924 980.358,444.924 987.5,434C 984.971,431.971 982.304,430.138 979.5,428.5C 975.326,422.493 970.326,417.327 964.5,413C 966.338,410.697 968.672,410.031 971.5,411C 974.692,413.692 978.025,416.192 981.5,418.5C 982.473,416.608 983.14,414.608 983.5,412.5C 982.285,404.491 982.452,396.491 984,388.5C 986.613,386.462 988.78,383.962 990.5,381C 991.5,380.333 992.5,380.333 993.5,381C 994.505,382.507 995.838,383.673 997.5,384.5C 998.226,387.852 999.059,391.185 1000,394.5C 1000.48,393.552 1000.65,392.552 1000.5,391.5C 1002.45,391.227 1003.95,391.893 1005,393.5C 1007.54,403.934 1009.7,414.434 1011.5,425C 1010.85,428.875 1010.02,432.709 1009,436.5C 1001.25,449.004 993.249,461.337 985,473.5C 975.875,484.961 966.375,496.127 956.5,507C 927.025,501.513 901.192,488.679 879,468.5C 874,470.833 870.333,474.5 868,479.5C 862.333,484.5 856.667,489.5 851,494.5C 846.364,501.813 841.698,509.146 837,516.5C 833.827,524.844 830.66,533.177 827.5,541.5C 827.833,542.5 828.167,543.5 828.5,544.5C 852.059,555.431 873.726,569.097 893.5,585.5C 899.145,589.305 905.145,592.471 911.5,595C 915.145,598.453 917.645,602.62 919,607.5C 920.007,614.893 921.341,622.227 923,629.5C 931.002,655.511 939.002,681.511 947,707.5C 949.271,713.726 952.771,719.06 957.5,723.5C 959.432,722.48 961.432,722.313 963.5,723C 968.441,730.875 974.107,738.208 980.5,745C 988.128,749.78 996.295,753.28 1005,755.5C 1007.35,761.741 1005.18,765.574 998.5,767C 990.746,767.542 983.079,766.876 975.5,765C 959.556,759.597 943.222,755.931 926.5,754C 923.61,751.336 922.276,748.003 922.5,744C 922.941,737.343 924.608,731.009 927.5,725C 923.689,714.21 919.189,703.71 914,693.5C 906.753,683.34 899.753,673.006 893,662.5C 888.122,652.325 884.789,641.658 883,630.5C 875.855,624.679 867.688,621.179 858.5,620C 855.833,618.667 853.167,617.333 850.5,616C 830.573,609.477 810.407,603.977 790,599.5C 781.751,605.078 774.084,611.412 767,618.5C 757.541,630.294 747.708,641.794 737.5,653C 729.258,659.236 721.591,666.236 714.5,674C 707.321,679.222 699.321,680.889 690.5,679C 684.893,677.677 679.226,676.677 673.5,676C 653.795,675.076 634.129,675.41 614.5,677C 606.564,678.9 598.898,681.567 591.5,685C 589.54,687.866 587.874,690.866 586.5,694C 575.036,696.558 564.036,700.558 553.5,706C 548.934,710.476 544.601,715.143 540.5,720C 534.814,721.739 530.98,719.906 529,714.5C 528.029,704.071 530.362,694.405 536,685.5C 541.419,678.816 547.419,672.816 554,667.5C 559.875,661.293 565.375,654.793 570.5,648C 573.881,645.755 577.548,645.088 581.5,646C 587.877,650.438 594.71,653.938 602,656.5C 619.186,651.993 636.019,646.493 652.5,640C 663.604,637.897 674.604,638.397 685.5,641.5C 689.553,639.621 693.22,637.121 696.5,634C 700.15,626.874 703.983,619.707 708,612.5C 715.579,602.342 722.912,592.009 730,581.5C 730.4,575.996 730.234,570.496 729.5,565C 729.644,560.79 730.144,556.624 731,552.5C 733.558,545.12 736.225,538.12 739,531.5C 744.38,525.453 750.38,520.12 757,515.5C 762.356,507.118 767.356,498.452 772,489.5C 775.252,480.073 779.086,470.906 783.5,462C 777.19,461.743 771.19,463.076 765.5,466C 751.976,475.112 736.976,479.446 720.5,479C 703.719,481.263 687.719,485.93 672.5,493C 668.206,497.474 663.539,501.474 658.5,505C 651.835,505.525 645.169,506.025 638.5,506.5C 634.335,506.587 630.335,505.92 626.5,504.5C 626.178,502.278 626.845,500.444 628.5,499C 631.711,497.847 635.044,497.18 638.5,497C 642.394,495.781 646.061,494.114 649.5,492C 647.375,487.432 644.042,485.932 639.5,487.5C 633.636,487.816 631.303,485.316 632.5,480C 647.86,480.459 662.86,478.459 677.5,474C 695.251,466.194 712.917,458.194 730.5,450C 738.574,446.898 746.907,444.898 755.5,444C 778.371,431.065 801.371,418.398 824.5,406C 833.375,401.276 842.708,399.776 852.5,401.5C 859.518,398.119 861.518,392.786 858.5,385.5C 858.818,375.76 859.651,366.093 861,356.5C 865.899,352.159 870.066,347.826 873.5,343.5C 874.833,342.167 876.167,342.167 877.5,343.5C 878.901,342.479 880.235,341.479 881.5,340.5 Z"/></g>
</svg>
