<?xml version="1.0" encoding="UTF-8"?>
<!DOCTYPE svg PUBLIC "-//W3C//DTD SVG 1.1//EN" "http://www.w3.org/Graphics/SVG/1.1/DTD/svg11.dtd">
<svg xmlns="http://www.w3.org/2000/svg" version="1.1" width="1024px" height="1024px" style="shape-rendering:geometricPrecision; text-rendering:geometricPrecision; image-rendering:optimizeQuality; fill-rule:evenodd; clip-rule:evenodd" xmlns:xlink="http://www.w3.org/1999/xlink">
<g><path style="opacity:0.998" fill="#0f0e0c" d="M 502.5,436.5 C 506.418,442.933 510.585,449.267 515,455.5C 520.077,466.653 525.41,477.653 531,488.5C 538.333,497.167 546.333,505.167 555,512.5C 556.667,514.833 558.333,517.167 560,519.5C 569.141,541.926 578.474,564.259 588,586.5C 588.667,591.833 588.667,597.167 588,602.5C 579.732,635.031 566.065,665.031 547,692.5C 546.866,698.823 547.032,705.156 547.5,711.5C 547.527,719.673 546.36,727.673 544,735.5C 538.333,746.167 532.667,756.833 527,767.5C 520.651,782.562 516.651,798.229 515,814.5C 514.439,817.29 513.106,819.623 511,821.5C 505.507,848.583 503.507,875.917 505,903.5C 509.736,905.237 512.736,908.571 514,913.5C 516.353,923.54 520.353,932.873 526,941.5C 526.358,946.959 527.358,952.292 529,957.5C 539.973,967.14 550.306,977.473 560,988.5C 565.781,998.123 564.281,1006.29 555.5,1013C 538.299,1020.7 520.299,1023.36 501.5,1021C 488.304,1019.98 477.137,1014.82 468,1005.5C 456,989.5 444,973.5 432,957.5C 430.139,955.112 428.806,952.446 428,949.5C 427.753,933.637 429.42,917.97 433,902.5C 437.543,894.748 441.543,886.748 445,878.5C 446.858,871.611 448.025,864.611 448.5,857.5C 430.42,858.709 415.587,852.375 404,838.5C 399.521,830.355 393.354,823.855 385.5,819C 375.177,817.97 364.843,816.97 354.5,816C 341.813,813.251 331.313,807.084 323,797.5C 319.22,792.439 316.387,786.939 314.5,781C 316.971,773.561 320.637,766.727 325.5,760.5C 334.962,755.601 344.296,750.435 353.5,745C 367.668,732.511 379.168,718.011 388,701.5C 395.279,694.913 401.612,687.58 407,679.5C 413.222,666.054 420.222,653.054 428,640.5C 441.851,626.494 457.684,615.327 475.5,607C 470.529,597.071 463.862,588.405 455.5,581C 440.67,571.084 425.67,561.417 410.5,552C 400.508,543.675 392.341,533.842 386,522.5C 374.969,510.237 362.469,499.737 348.5,491C 321.979,468.806 310.979,440.639 315.5,406.5C 334.518,397.333 352.184,386.166 368.5,373C 387.016,353.451 405.183,333.618 423,313.5C 425.746,307.826 427.412,301.826 428,295.5C 434.564,290.614 438.064,284.114 438.5,276C 437.353,268.479 437.187,260.979 438,253.5C 435.66,260.887 435.16,268.387 436.5,276C 436.238,278.547 435.738,281.047 435,283.5C 432.089,288.751 428.756,293.751 425,298.5C 425.538,304.606 423.871,309.939 420,314.5C 408.631,326.2 397.631,338.2 387,350.5C 371.428,368.422 353.262,382.922 332.5,394C 322.295,399.935 311.962,405.602 301.5,411C 286.943,416.445 271.943,420.112 256.5,422C 249.442,423.797 242.442,425.797 235.5,428C 217.631,430.493 206.798,422.993 203,405.5C 197.212,382.003 196.212,358.336 200,334.5C 201.47,329.757 203.136,325.091 205,320.5C 215.333,303.167 225.667,285.833 236,268.5C 240.195,251.914 245.195,235.581 251,219.5C 254.81,211.212 259.144,203.212 264,195.5C 273.333,184.167 282.667,172.833 292,161.5C 305.716,145.906 319.549,130.406 333.5,115C 337.947,110.936 342.947,107.602 348.5,105C 361.5,99.5 374.5,94 387.5,88.5C 389.039,80.6992 392.205,73.6992 397,67.5C 399.258,53.3846 404.258,40.3846 412,28.5C 416.868,24.9657 421.034,20.7991 424.5,16C 430.287,13.6065 435.954,10.9398 441.5,8C 448.124,6.72044 454.79,5.72044 461.5,5C 464.452,2.69127 467.786,1.19127 471.5,0.5C 477.224,2.73167 483.057,3.39834 489,2.5C 490.5,3 492,3.5 493.5,4C 495.227,7.39305 497.894,9.72638 501.5,11C 506.43,12.2413 511.43,13.0747 516.5,13.5C 517.132,18.3049 519.799,21.4716 524.5,23C 528.215,27.593 532.048,32.093 536,36.5C 537.009,38.0249 537.509,39.6916 537.5,41.5C 560.031,43.5102 581.364,49.6768 601.5,60C 627.642,61.3462 653.642,64.0128 679.5,68C 702.761,74.1214 722.761,85.6214 739.5,102.5C 749.609,107.437 758.442,114.104 766,122.5C 771.318,132.07 773.985,142.403 774,153.5C 778.667,160.167 783.333,166.833 788,173.5C 792.378,183.015 794.545,193.015 794.5,203.5C 791.936,222.427 791.102,241.427 792,260.5C 796.446,267.995 800.613,275.661 804.5,283.5C 809.097,289.131 814.763,293.297 821.5,296C 826.997,301.033 826.664,305.7 820.5,310C 808.821,308.993 798.654,304.493 790,296.5C 790.834,304.179 792.001,311.845 793.5,319.5C 794.145,329.699 789.645,333.365 780,330.5C 777.893,337.87 773.227,340.87 766,339.5C 764.138,335.581 762.471,331.581 761,327.5C 759.037,323.913 757.537,323.913 756.5,327.5C 760.131,331.891 761.631,336.891 761,342.5C 759.235,345.473 756.735,347.64 753.5,349C 751.833,349.667 750.167,349.667 748.5,349C 743.717,341.883 738.551,335.05 733,328.5C 732.065,326.091 731.565,323.591 731.5,321C 732.134,314.83 732.8,308.663 733.5,302.5C 732.352,298.892 731.852,295.225 732,291.5C 734.773,286.396 737.94,281.563 741.5,277C 737.763,275.719 735.263,273.219 734,269.5C 732.943,261.056 729.943,253.389 725,246.5C 719.462,233.682 715.795,220.349 714,206.5C 703.908,193.983 696.741,179.983 692.5,164.5C 670.246,165.44 648.913,161.274 628.5,152C 613.467,151.98 598.634,150.48 584,147.5C 585.484,163.09 585.817,178.756 585,194.5C 582.164,221.184 579.164,247.851 576,274.5C 575.48,283.166 574.98,291.832 574.5,300.5C 576.124,321.535 578.124,342.535 580.5,363.5C 580.303,369.39 579.136,375.057 577,380.5C 574.414,382.545 571.58,384.211 568.5,385.5C 566.555,389.114 563.888,392.114 560.5,394.5C 559.673,405.917 560.507,417.25 563,428.5C 567.401,443.368 572.401,458.035 578,472.5C 584.805,501.374 585.305,530.374 579.5,559.5C 575.187,550.402 571.354,541.069 568,531.5C 565.588,526.341 562.921,521.341 560,516.5C 550.695,506.526 541.361,496.526 532,486.5C 526.744,476.32 521.744,465.986 517,455.5C 512.687,448.697 507.853,442.364 502.5,436.5 Z M 393.5,98.5 C 391.492,100.268 389.326,101.934 387,103.5C 386.833,105.667 386.667,107.833 386.5,110C 387.922,120.612 389.922,131.112 392.5,141.5C 387.518,129.423 385.018,116.756 385,103.5C 387.029,100.404 389.862,98.7377 393.5,98.5 Z M 393.5,144.5 C 395.717,145.369 398.05,145.702 400.5,145.5C 404.396,173.552 417.396,196.386 439.5,214C 445.094,217.904 451.094,218.904 457.5,217C 465.167,212.667 472.833,208.333 480.5,204C 484.036,200.296 487.702,196.796 491.5,193.5C 489.409,196.771 487.076,199.937 484.5,203C 475.167,208.333 465.833,213.667 456.5,219C 445.798,221.066 436.965,217.9 430,209.5C 418.993,196.826 409.993,182.826 403,167.5C 401.076,160.958 399.91,154.291 399.5,147.5C 397.5,147.5 395.5,147.5 393.5,147.5C 393.5,146.5 393.5,145.5 393.5,144.5 Z M 387.5,149.5 C 383.355,151.736 379.022,153.736 374.5,155.5C 377.888,151.642 382.222,149.642 387.5,149.5 Z M 374.5,155.5 C 373.738,157.262 372.404,158.262 370.5,158.5C 371.262,156.738 372.596,155.738 374.5,155.5 Z M 369.5,159.5 C 369.5,160.833 368.833,161.5 367.5,161.5C 367.833,160.5 368.5,159.833 369.5,159.5 Z M 367.5,161.5 C 367.573,163.027 366.906,164.027 365.5,164.5C 365.427,162.973 366.094,161.973 367.5,161.5 Z M 364.5,165.5 C 364.573,167.027 363.906,168.027 362.5,168.5C 362.427,166.973 363.094,165.973 364.5,165.5 Z M 509.5,167.5 C 509.573,169.027 508.906,170.027 507.5,170.5C 507.427,168.973 508.094,167.973 509.5,167.5 Z M 507.5,170.5 C 507.573,172.027 506.906,173.027 505.5,173.5C 505.427,171.973 506.094,170.973 507.5,170.5 Z M 505.5,173.5 C 505.573,175.027 504.906,176.027 503.5,176.5C 503.427,174.973 504.094,173.973 505.5,173.5 Z M 356.5,180.5 C 356.833,180.5 357.167,180.5 357.5,180.5C 357.092,190.266 357.758,199.933 359.5,209.5C 358.224,207.438 357.39,205.104 357,202.5C 356.5,195.174 356.334,187.841 356.5,180.5 Z M 500.5,180.5 C 500.573,182.027 499.906,183.027 498.5,183.5C 498.427,181.973 499.094,180.973 500.5,180.5 Z M 498.5,183.5 C 498.573,185.027 497.906,186.027 496.5,186.5C 496.427,184.973 497.094,183.973 498.5,183.5 Z M 343.5,200.5 C 343.378,195.768 343.878,191.102 345,186.5C 345.465,191.385 344.965,196.052 343.5,200.5 Z M 496.5,186.5 C 496.573,188.027 495.906,189.027 494.5,189.5C 494.427,187.973 495.094,186.973 496.5,186.5 Z M 392.5,188.5 C 394.017,188.511 395.184,189.177 396,190.5C 396.667,193.167 396.667,195.833 396,198.5C 395.71,194.792 394.543,191.459 392.5,188.5 Z M 494.5,189.5 C 494.262,191.404 493.262,192.738 491.5,193.5C 491.738,191.596 492.738,190.262 494.5,189.5 Z M 343.5,200.5 C 343.795,209.941 344.795,219.275 346.5,228.5C 345.21,227.942 344.377,226.942 344,225.5C 342.413,217.033 342.246,208.7 343.5,200.5 Z M 392.5,209.5 C 391.476,207.381 392.143,206.215 394.5,206C 393.915,207.302 393.249,208.469 392.5,209.5 Z M 392.5,209.5 C 391.327,214.513 391.327,219.513 392.5,224.5C 389.913,219.483 389.913,214.483 392.5,209.5 Z M 362.5,216.5 C 365.064,219.28 367.397,222.28 369.5,225.5C 367.983,225.489 366.816,224.823 366,223.5C 364.295,221.423 363.128,219.09 362.5,216.5 Z M 392.5,224.5 C 393.87,228.907 395.703,233.24 398,237.5C 399.255,238.211 400.421,239.044 401.5,240C 410.06,241.112 418.394,240.279 426.5,237.5C 419.568,240.469 412.568,242.803 405.5,244.5C 397.18,240.55 392.847,233.883 392.5,224.5 Z M 346.5,228.5 C 349.207,230.843 351.874,233.177 354.5,235.5C 350.587,234.55 347.92,232.217 346.5,228.5 Z M 433.5,233.5 C 433.027,234.906 432.027,235.573 430.5,235.5C 430.973,234.094 431.973,233.427 433.5,233.5 Z M 354.5,235.5 C 356.716,236.203 358.549,237.536 360,239.5C 362.072,242.971 363.572,246.638 364.5,250.5C 361.924,245.021 358.591,240.021 354.5,235.5 Z M 364.5,250.5 C 368.3,258.147 373.133,265.147 379,271.5C 380.434,275.406 380.767,279.406 380,283.5C 379.292,284.381 378.458,285.047 377.5,285.5C 378.923,280.793 378.756,276.126 377,271.5C 373.425,267.347 370.091,263.014 367,258.5C 365.659,255.978 364.826,253.311 364.5,250.5 Z M 375.5,289.5 C 374.118,292.394 372.118,294.894 369.5,297C 365.286,299.274 360.953,301.274 356.5,303C 347.701,305.266 339.035,307.933 330.5,311C 320.928,316.756 311.261,322.256 301.5,327.5C 301.611,326.883 301.944,326.383 302.5,326C 285.904,323.33 269.237,322.83 252.5,324.5C 260.178,322.07 268.178,321.07 276.5,321.5C 283.54,321.501 290.54,322.001 297.5,323C 299.888,323.303 302.055,324.137 304,325.5C 312.25,319.957 320.75,314.79 329.5,310C 332.28,305.933 334.113,301.433 335,296.5C 335.721,284.79 336.721,273.124 338,261.5C 337.196,268.989 337.363,276.489 338.5,284C 338.1,292.052 336.934,299.885 335,307.5C 343.069,304.773 351.235,302.273 359.5,300C 365.528,297.457 370.861,293.957 375.5,289.5 Z M 483.5,411.5 C 484.906,411.973 485.573,412.973 485.5,414.5C 484.094,414.027 483.427,413.027 483.5,411.5 Z M 486.5,415.5 C 488.984,417.8 490.984,420.467 492.5,423.5C 489.529,421.557 487.529,418.891 486.5,415.5 Z M 492.5,423.5 C 494.262,424.262 495.262,425.596 495.5,427.5C 493.738,426.738 492.738,425.404 492.5,423.5 Z M 495.5,427.5 C 497.262,428.262 498.262,429.596 498.5,431.5C 496.738,430.738 495.738,429.404 495.5,427.5 Z M 498.5,431.5 C 500.587,432.585 501.92,434.251 502.5,436.5C 500.413,435.415 499.08,433.749 498.5,431.5 Z M 446.5,735.5 C 449.484,748.497 448.984,761.497 445,774.5C 442.595,780.55 440.095,786.55 437.5,792.5C 433.432,791.047 429.932,788.714 427,785.5C 423.353,781.176 420.52,776.343 418.5,771C 419.35,765.448 421.183,760.281 424,755.5C 431.397,748.597 438.897,741.93 446.5,735.5 Z"/></g>
</svg>
