<?xml version="1.0" encoding="UTF-8"?>
<!DOCTYPE svg PUBLIC "-//W3C//DTD SVG 1.1//EN" "http://www.w3.org/Graphics/SVG/1.1/DTD/svg11.dtd">
<svg xmlns="http://www.w3.org/2000/svg" version="1.1" width="1024px" height="1024px" style="shape-rendering:geometricPrecision; text-rendering:geometricPrecision; image-rendering:optimizeQuality; fill-rule:evenodd; clip-rule:evenodd" xmlns:xlink="http://www.w3.org/1999/xlink">
<g><path style="opacity:0.976" fill="#000000" d="M -0.5,934.5 C -0.5,934.167 -0.5,933.833 -0.5,933.5C 14.5061,932.843 29.5061,932.009 44.5,931C 39.5734,926.952 34.7401,922.785 30,918.5C 26.2881,911.802 25.6214,904.802 28,897.5C 32.1878,887.631 35.3545,877.465 37.5,867C 37.179,862.728 36.3457,858.562 35,854.5C 27.6658,841.5 22.4991,827.667 19.5,813C 19.9565,804.419 23.9565,798.085 31.5,794C 38.6883,791.703 46.0217,790.036 53.5,789C 56.6179,787.941 59.6179,786.608 62.5,785C 67.9913,780.754 73.6579,776.754 79.5,773C 84.3993,771.875 88.8993,772.709 93,775.5C 107.671,764.733 121.504,752.899 134.5,740C 92.1627,739.833 49.8294,739.333 7.5,738.5C 54.5386,734.521 101.539,730.355 148.5,726C 161.5,711 174.5,696 187.5,681C 154.162,680.574 120.828,679.907 87.5,679C 123.859,676.276 160.193,673.276 196.5,670C 201.42,667.084 205.753,663.418 209.5,659C 189.181,657.984 168.848,657.484 148.5,657.5C 112.834,658.236 77.1673,658.403 41.5,658C 102.138,652.746 162.804,647.746 223.5,643C 242.532,637.995 261.866,634.662 281.5,633C 283.305,632.028 284.972,630.861 286.5,629.5C 297.715,611.105 311.381,594.605 327.5,580C 351.003,561.326 374.336,542.493 397.5,523.5C 340.503,522.667 283.503,522.167 226.5,522C 289.461,516.503 352.461,511.503 415.5,507C 419.491,504.376 422.825,501.043 425.5,497C 309.167,496.667 192.833,496.333 76.5,496C 196.469,490.295 316.469,484.961 436.5,480C 438.333,479.5 439.5,478.333 440,476.5C 444.33,458.668 453.164,443.501 466.5,431C 369.167,430.667 271.833,430.333 174.5,430C 174.833,429.667 175.167,429.333 175.5,429C 279.204,425.193 382.871,420.86 486.5,416C 510.503,401.667 534.17,386.834 557.5,371.5C 455.502,370.407 353.502,369.574 251.5,369C 358.478,363.988 465.478,359.321 572.5,355C 576.167,350.667 579.833,346.333 583.5,342C 482.161,341.404 380.828,341.404 279.5,342C 383.093,336.586 486.76,331.92 590.5,328C 592.167,327.667 593.833,327.333 595.5,327C 601.833,319.333 608.167,311.667 614.5,304C 448.5,303.667 282.5,303.333 116.5,303C 287.166,297.398 457.832,291.731 628.5,286C 638.547,272.28 649.714,259.446 662,247.5C 663.247,244.671 664.747,242.005 666.5,239.5C 663.5,234.167 660.5,228.833 657.5,223.5C 615.167,222.833 572.833,222.167 530.5,221.5C 531.729,220.719 533.062,220.219 534.5,220C 572.857,216.574 611.191,212.907 649.5,209C 644.46,199.752 639.293,190.586 634,181.5C 630.924,176.751 626.591,174.085 621,173.5C 596.594,181.143 571.76,186.977 546.5,191C 525.621,197.404 504.955,204.404 484.5,212C 481.438,213.061 478.938,214.894 477,217.5C 471.248,226.672 465.248,235.672 459,244.5C 454.289,250.062 448.456,253.728 441.5,255.5C 438.048,254.905 434.714,253.905 431.5,252.5C 426.088,255.807 420.421,258.64 414.5,261C 402.227,264.738 395.06,260.238 393,247.5C 392.333,236.833 392.333,226.167 393,215.5C 392.7,206.128 397.2,200.628 406.5,199C 427.934,193.309 449.267,187.309 470.5,181C 481.288,176.442 491.288,170.609 500.5,163.5C 448.837,162.667 397.17,162.167 345.5,162C 407.494,157.239 469.494,152.572 531.5,148C 535.918,146.194 540.251,144.194 544.5,142C 449.841,140.751 355.174,140.085 260.5,140C 248.5,139.667 236.5,139.333 224.5,139C 353.002,128.012 481.668,117.679 610.5,108C 616.361,107.353 622.194,106.52 628,105.5C 633.939,105.888 639.105,108.054 643.5,112C 653.473,120.64 662.806,129.973 671.5,140C 684.221,149.721 697.221,159.054 710.5,168C 720.53,177.696 730.197,187.696 739.5,198C 750.245,205.407 760.411,213.574 770,222.5C 774.971,228.774 778.638,235.774 781,243.5C 782.863,245.949 785.363,246.949 788.5,246.5C 793.02,246.407 797.02,244.907 800.5,242C 803.855,238.779 806.855,235.279 809.5,231.5C 805.049,227.319 803.049,222.152 803.5,216C 804.232,204.171 806.566,192.671 810.5,181.5C 793.176,180.667 775.843,180.167 758.5,180C 776.589,177.49 794.589,174.657 812.5,171.5C 813.253,169.247 814.586,167.413 816.5,166C 789.687,165.991 763.02,165.325 736.5,164C 774.16,158.918 811.827,153.918 849.5,149C 877.364,146.126 902.031,153.459 923.5,171C 933.193,179.727 939.527,190.394 942.5,203C 941.317,209.858 937.484,214.692 931,217.5C 925.608,229.511 921.108,241.844 917.5,254.5C 916.086,255.624 914.586,256.624 913,257.5C 913.537,265.848 914.203,274.181 915,282.5C 910.879,283.139 906.713,283.805 902.5,284.5C 902.802,290.267 900.135,293.267 894.5,293.5C 894.579,294.93 894.246,296.264 893.5,297.5C 890.128,298.269 887.295,299.935 885,302.5C 883,306.5 881,310.5 879,314.5C 877.255,315.956 875.422,317.289 873.5,318.5C 868.023,313.594 862.023,309.427 855.5,306C 849.926,303.391 844.259,303.058 838.5,305C 844.353,312.544 848.187,321.044 850,330.5C 851.815,343.432 852.815,356.432 853,369.5C 856.394,377.288 860.061,384.955 864,392.5C 869.282,409.107 874.116,425.773 878.5,442.5C 901.966,428.198 925.299,413.698 948.5,399C 952.667,394.833 956.833,390.667 961,386.5C 963.496,382.505 965.162,378.172 966,373.5C 966.143,365.771 966.81,358.105 968,350.5C 968.374,349.584 968.874,348.75 969.5,348C 972.417,346.472 975.417,345.139 978.5,344C 979.77,340.797 981.77,338.13 984.5,336C 995.646,334.382 1005.15,337.549 1013,345.5C 1018.26,354.928 1021.26,364.928 1022,375.5C 1018.88,380.954 1014.71,385.454 1009.5,389C 997.506,396.319 986.673,405.153 977,415.5C 958.951,437.88 941.285,460.547 924,483.5C 913.427,496.075 901.594,507.241 888.5,517C 883.764,519.435 878.764,521.101 873.5,522C 816.833,522.667 760.167,522.667 703.5,522C 702.5,521.667 701.5,521.333 700.5,521C 750.158,515.934 799.824,510.934 849.5,506C 844.877,499.708 839.877,493.708 834.5,488C 778.249,486.675 721.916,486.008 665.5,486C 717.489,480.668 769.489,475.334 821.5,470C 820.601,467.808 819.601,465.642 818.5,463.5C 783.167,462.833 747.833,462.167 712.5,461.5C 713.025,460.808 713.692,460.308 714.5,460C 744.875,456.245 775.208,452.245 805.5,448C 798.247,435.906 793.58,422.906 791.5,409C 761.517,417 731.184,424 700.5,430C 690.551,432.388 682.051,437.221 675,444.5C 670.914,451.007 666.58,457.34 662,463.5C 652.652,472.681 643.486,482.014 634.5,491.5C 668.326,514.158 695.826,542.825 717,577.5C 728.776,599.053 737.776,621.72 744,645.5C 746.26,658.344 744.594,670.678 739,682.5C 734.277,689.888 727.777,695.055 719.5,698C 674.326,717.296 627.659,731.962 579.5,742C 552.541,747.825 525.541,753.325 498.5,758.5C 499.283,762.146 499.45,765.812 499,769.5C 497.269,771.617 495.102,773.117 492.5,774C 485.991,775.67 479.658,777.836 473.5,780.5C 472.706,798.815 474.873,816.815 480,834.5C 482.079,838.993 484.412,843.326 487,847.5C 491.615,851.558 496.781,854.725 502.5,857C 507.888,861.271 510.388,866.771 510,873.5C 502.215,876.807 494.048,878.64 485.5,879C 378.469,882.161 271.469,886.161 164.5,891C 153.5,891.667 142.5,891.667 131.5,891C 236.786,882.311 342.12,873.978 447.5,866C 449.256,865.798 450.922,865.298 452.5,864.5C 443.917,850.331 435.083,836.331 426,822.5C 417.006,813.093 406.839,805.26 395.5,799C 390.917,795.088 387.083,790.588 384,785.5C 380.661,775.015 383.827,767.181 393.5,762C 409.356,758.077 422.69,750.077 433.5,738C 438.577,735.905 443.91,734.905 449.5,735C 478.724,721.721 507.391,707.388 535.5,692C 506.828,691.833 478.161,691.333 449.5,690.5C 486.769,685.6 524.102,681.1 561.5,677C 566.924,675.79 571.59,673.29 575.5,669.5C 520.499,668.693 465.499,667.86 410.5,667C 476.757,661.36 543.091,656.027 609.5,651C 613.759,649.066 617.759,646.732 621.5,644C 617.581,643.25 613.915,641.917 610.5,640C 617.799,638.98 625.132,638.313 632.5,638C 639.167,634.333 645.833,630.667 652.5,627C 624.464,610.98 595.797,595.98 566.5,582C 558.156,577.163 550.156,571.83 542.5,566C 541.5,565.333 540.5,565.333 539.5,566C 510.507,585.498 481.174,604.498 451.5,623C 419.893,641.304 387.56,658.304 354.5,674C 348.554,679.946 342.554,685.946 336.5,692C 324.228,701.65 310.228,706.983 294.5,708C 286.166,715.174 276.832,720.84 266.5,725C 239.649,733.426 214.316,745.093 190.5,760C 168.659,774.753 146.992,789.753 125.5,805C 127.672,807.493 128.506,810.326 128,813.5C 123.865,816.555 119.365,819.055 114.5,821C 102.042,836.46 89.2088,851.627 76,866.5C 69.5033,876.724 67.8367,887.724 71,899.5C 71.972,901.305 73.1387,902.972 74.5,904.5C 79.9425,906.97 84.7758,910.303 89,914.5C 92.1982,920.931 94.6982,927.598 96.5,934.5C 64.1667,934.5 31.8333,934.5 -0.5,934.5 Z"/></g>
</svg>
