<?xml version="1.0" encoding="UTF-8"?>
<!DOCTYPE svg PUBLIC "-//W3C//DTD SVG 1.1//EN" "http://www.w3.org/Graphics/SVG/1.1/DTD/svg11.dtd">
<svg xmlns="http://www.w3.org/2000/svg" version="1.1" width="1024px" height="1024px" style="shape-rendering:geometricPrecision; text-rendering:geometricPrecision; image-rendering:optimizeQuality; fill-rule:evenodd; clip-rule:evenodd" xmlns:xlink="http://www.w3.org/1999/xlink">
<g><path style="opacity:0.995" fill="#1a1b20" d="M 673.5,103.5 C 694.264,104.143 712.931,110.643 729.5,123C 743.157,135.307 747.991,150.474 744,168.5C 741.661,174.51 739.327,180.51 737,186.5C 736.333,192.833 736.333,199.167 737,205.5C 739.93,203.934 743.097,203.1 746.5,203C 766.438,205.595 785.771,203.262 804.5,196C 807.759,194.789 810.592,192.956 813,190.5C 818.134,177.191 827.634,169.191 841.5,166.5C 842.833,166.667 844.167,166.833 845.5,167C 852.674,172.167 860.34,176.5 868.5,180C 874.5,186.031 875.167,192.698 870.5,200C 864.204,199.656 858.537,201.323 853.5,205C 850.202,209.3 846.535,213.3 842.5,217C 833.633,220.706 824.633,224.039 815.5,227C 802.167,237 788.833,247 775.5,257C 769.609,261.113 763.276,264.446 756.5,267C 743.253,269.49 729.92,270.823 716.5,271C 700.48,262.903 683.98,256.07 667,250.5C 664.851,273.725 660.851,296.725 655,319.5C 641.045,344.742 628.712,370.742 618,397.5C 617.321,412.468 623.654,423.468 637,430.5C 675.182,411.961 715.349,405.794 757.5,412C 766.291,413.025 774.958,414.692 783.5,417C 793.909,422.295 802.409,429.795 809,439.5C 824.544,463.923 836.877,489.923 846,517.5C 858.028,554.952 870.362,592.286 883,629.5C 892.482,653.321 909.649,668.155 934.5,674C 957.233,677.957 980.067,678.457 1003,675.5C 1014.69,674.2 1018.69,679.2 1015,690.5C 1011.42,700.744 1004.92,708.577 995.5,714C 975.959,726.219 954.625,731.886 931.5,731C 911.93,735.476 892.263,739.476 872.5,743C 859.561,745.955 851.395,741.122 848,728.5C 847.941,707.805 844.941,687.471 839,667.5C 833.396,651.356 827.396,635.356 821,619.5C 815.888,606.609 809.721,594.276 802.5,582.5C 768.695,566.408 753.695,539.574 757.5,502C 756.731,499.599 755.064,498.099 752.5,497.5C 745.253,499.116 737.919,500.282 730.5,501C 679.239,542.53 620.573,561.196 554.5,557C 535.137,554.617 516.303,550.117 498,543.5C 486.896,569.391 471.563,592.391 452,612.5C 440.544,623.617 428.711,634.45 416.5,645C 396.881,659.618 377.547,674.618 358.5,690C 351.198,698.303 343.531,706.303 335.5,714C 319.546,724.746 301.879,730.746 282.5,732C 248.527,751.663 212.86,767.663 175.5,780C 167.847,783.492 160.513,787.492 153.5,792C 140.167,801.333 126.833,810.667 113.5,820C 95.8391,833.983 82.3391,851.15 73,871.5C 67.3099,878.188 61.3099,884.522 55,890.5C 54.3223,899.2 51.6557,907.2 47,914.5C 38.9457,919.913 31.9457,918.58 26,910.5C 16.0716,890.929 12.405,870.262 15,848.5C 21.2345,832.234 26.2345,815.568 30,798.5C 34.5165,787.649 41.0165,778.149 49.5,770C 55.1827,766.299 61.1827,765.632 67.5,768C 70.7323,770.903 74.2323,773.403 78,775.5C 113.701,764.735 144.534,746.235 170.5,720C 191.149,705.005 212.482,691.005 234.5,678C 247.786,670.857 261.453,664.524 275.5,659C 283.766,652.738 291.432,645.738 298.5,638C 301.062,635.587 304.062,633.92 307.5,633C 331.107,582.054 363.274,537.221 404,498.5C 405.832,495.672 406.832,492.672 407,489.5C 404.489,491.563 401.656,493.063 398.5,494C 387.777,495.073 380.11,500.406 375.5,510C 368.429,510.88 362.929,508.38 359,502.5C 358.848,493.099 358.014,483.766 356.5,474.5C 358.393,466.1 363.393,460.267 371.5,457C 378.361,455.087 385.361,454.087 392.5,454C 405.759,443.973 416.593,431.806 425,417.5C 436.336,403.58 450.836,394.914 468.5,391.5C 468.566,383.568 470.066,375.901 473,368.5C 478.288,358.258 483.288,347.925 488,337.5C 492.226,317.49 499.226,298.49 509,280.5C 518.414,263.337 528.08,246.337 538,229.5C 560.154,198.007 589.654,176.673 626.5,165.5C 628.547,154.979 631.381,144.646 635,134.5C 642.661,117.604 655.495,107.271 673.5,103.5 Z"/></g>
</svg>
